<?xml version="1.0" encoding="utf-8"?>
<!-- Generator: Adobe Illustrator 21.0.2, SVG Export Plug-In . SVG Version: 6.00 Build 0)  -->
<svg version="1.1" xmlns="http://www.w3.org/2000/svg" xmlns:xlink="http://www.w3.org/1999/xlink" x="0px" y="0px" width="863.9px"
	 height="300px" viewBox="0 0 863.9 300" style="enable-background:new 0 0 863.9 300;" xml:space="preserve">
<style type="text/css">
	.st0{fill:#CCCCCC;stroke:#000000;stroke-width:2;}
	.st1{fill:#CCCCCC;}
	.st2{fill:#FCFCFC;}
	.st3{font-family:'GothamRounded-Light';}
	.st4{font-size:14px;}
	.st5{font-size:30px;}
	.st6{font-family:'HelveticaNeue';}
	.st7{font-size:18px;}
	.st8{font-family:'Gotham-Book';}
	.st9{font-size:16px;}
	.st10{font-family:'ArialMT';}
</style>
<g id="keys">
	<g>
		<path class="st0" d="M21,16h55.5c2.8,0,5,2.2,5,5v42c0,2.8-2.2,5-5,5H21c-2.8,0-5-2.2-5-5V21C16,18.2,18.2,16,21,16z"/>
		<path class="st1" d="M21,16h55.5c2.8,0,5,2.2,5,5v42c0,2.8-2.2,5-5,5H21c-2.8,0-5-2.2-5-5V21C16,18.2,18.2,16,21,16z"/>
		<path class="st2" d="M27,19h43.5c2.8,0,5,2.2,5,5v30c0,2.8-2.2,5-5,5H27c-2.8,0-5-2.2-5-5V24C22,21.2,24.2,19,27,19z"/>
		<path class="st2" d="M27,19h43.5c2.8,0,5,2.2,5,5v30c0,2.8-2.2,5-5,5H27c-2.8,0-5-2.2-5-5V24C22,21.2,24.2,19,27,19z"/>
	</g>
	<g>
		<path class="st0" d="M88.5,16h42c2.8,0,5,2.2,5,5v42c0,2.8-2.2,5-5,5h-42c-2.8,0-5-2.2-5-5V21C83.5,18.2,85.7,16,88.5,16z"/>
		<path class="st1" d="M88.5,16h42c2.8,0,5,2.2,5,5v42c0,2.8-2.2,5-5,5h-42c-2.8,0-5-2.2-5-5V21C83.5,18.2,85.7,16,88.5,16z"/>
		<path class="st2" d="M94.5,19h30c2.8,0,5,2.2,5,5v30c0,2.8-2.2,5-5,5h-30c-2.8,0-5-2.2-5-5V24C89.5,21.2,91.7,19,94.5,19z"/>
		<path class="st2" d="M94.5,19h30c2.8,0,5,2.2,5,5v30c0,2.8-2.2,5-5,5h-30c-2.8,0-5-2.2-5-5V24C89.5,21.2,91.7,19,94.5,19z"/>
	</g>
	<g>
		<path class="st0" d="M142.5,16h42c2.8,0,5,2.2,5,5v42c0,2.8-2.2,5-5,5h-42c-2.8,0-5-2.2-5-5V21C137.5,18.2,139.7,16,142.5,16z"/>
		<path class="st1" d="M142.5,16h42c2.8,0,5,2.2,5,5v42c0,2.8-2.2,5-5,5h-42c-2.8,0-5-2.2-5-5V21C137.5,18.2,139.7,16,142.5,16z"/>
		<path class="st2" d="M148.5,19h30c2.8,0,5,2.2,5,5v30c0,2.8-2.2,5-5,5h-30c-2.8,0-5-2.2-5-5V24C143.5,21.2,145.7,19,148.5,19z"/>
		<path class="st2" d="M148.5,19h30c2.8,0,5,2.2,5,5v30c0,2.8-2.2,5-5,5h-30c-2.8,0-5-2.2-5-5V24C143.5,21.2,145.7,19,148.5,19z"/>
	</g>
	<g>
		<path class="st0" d="M196.5,16h42c2.8,0,5,2.2,5,5v42c0,2.8-2.2,5-5,5h-42c-2.8,0-5-2.2-5-5V21C191.5,18.2,193.7,16,196.5,16z"/>
		<path class="st1" d="M196.5,16h42c2.8,0,5,2.2,5,5v42c0,2.8-2.2,5-5,5h-42c-2.8,0-5-2.2-5-5V21C191.5,18.2,193.7,16,196.5,16z"/>
		<path class="st2" d="M202.5,19h30c2.8,0,5,2.2,5,5v30c0,2.8-2.2,5-5,5h-30c-2.8,0-5-2.2-5-5V24C197.5,21.2,199.7,19,202.5,19z"/>
		<path class="st2" d="M202.5,19h30c2.8,0,5,2.2,5,5v30c0,2.8-2.2,5-5,5h-30c-2.8,0-5-2.2-5-5V24C197.5,21.2,199.7,19,202.5,19z"/>
	</g>
	<g>
		<path class="st0" d="M250.5,16h42c2.8,0,5,2.2,5,5v42c0,2.8-2.2,5-5,5h-42c-2.8,0-5-2.2-5-5V21C245.5,18.2,247.7,16,250.5,16z"/>
		<path class="st1" d="M250.5,16h42c2.8,0,5,2.2,5,5v42c0,2.8-2.2,5-5,5h-42c-2.8,0-5-2.2-5-5V21C245.5,18.2,247.7,16,250.5,16z"/>
		<path class="st2" d="M256.5,19h30c2.8,0,5,2.2,5,5v30c0,2.8-2.2,5-5,5h-30c-2.8,0-5-2.2-5-5V24C251.5,21.2,253.7,19,256.5,19z"/>
		<path class="st2" d="M256.5,19h30c2.8,0,5,2.2,5,5v30c0,2.8-2.2,5-5,5h-30c-2.8,0-5-2.2-5-5V24C251.5,21.2,253.7,19,256.5,19z"/>
	</g>
	<g>
		<path class="st0" d="M304.5,16h42c2.8,0,5,2.2,5,5v42c0,2.8-2.2,5-5,5h-42c-2.8,0-5-2.2-5-5V21C299.5,18.2,301.7,16,304.5,16z"/>
		<path class="st1" d="M304.5,16h42c2.8,0,5,2.2,5,5v42c0,2.8-2.2,5-5,5h-42c-2.8,0-5-2.2-5-5V21C299.5,18.2,301.7,16,304.5,16z"/>
		<path class="st2" d="M310.5,19h30c2.8,0,5,2.2,5,5v30c0,2.8-2.2,5-5,5h-30c-2.8,0-5-2.2-5-5V24C305.5,21.2,307.7,19,310.5,19z"/>
		<path class="st2" d="M310.5,19h30c2.8,0,5,2.2,5,5v30c0,2.8-2.2,5-5,5h-30c-2.8,0-5-2.2-5-5V24C305.5,21.2,307.7,19,310.5,19z"/>
	</g>
	<g>
		<path class="st0" d="M358.5,16h42c2.8,0,5,2.2,5,5v42c0,2.8-2.2,5-5,5h-42c-2.8,0-5-2.2-5-5V21C353.5,18.2,355.7,16,358.5,16z"/>
		<path class="st1" d="M358.5,16h42c2.8,0,5,2.2,5,5v42c0,2.8-2.2,5-5,5h-42c-2.8,0-5-2.2-5-5V21C353.5,18.2,355.7,16,358.5,16z"/>
		<path class="st2" d="M364.5,19h30c2.8,0,5,2.2,5,5v30c0,2.8-2.2,5-5,5h-30c-2.8,0-5-2.2-5-5V24C359.5,21.2,361.7,19,364.5,19z"/>
		<path class="st2" d="M364.5,19h30c2.8,0,5,2.2,5,5v30c0,2.8-2.2,5-5,5h-30c-2.8,0-5-2.2-5-5V24C359.5,21.2,361.7,19,364.5,19z"/>
	</g>
	<g>
		<path class="st0" d="M462,16h42c2.8,0,5,2.2,5,5v42c0,2.8-2.2,5-5,5h-42c-2.8,0-5-2.2-5-5V21C457,18.2,459.2,16,462,16z"/>
		<path class="st1" d="M462,16h42c2.8,0,5,2.2,5,5v42c0,2.8-2.2,5-5,5h-42c-2.8,0-5-2.2-5-5V21C457,18.2,459.2,16,462,16z"/>
		<path class="st2" d="M468,19h30c2.8,0,5,2.2,5,5v30c0,2.8-2.2,5-5,5h-30c-2.8,0-5-2.2-5-5V24C463,21.2,465.2,19,468,19z"/>
		<path class="st2" d="M468,19h30c2.8,0,5,2.2,5,5v30c0,2.8-2.2,5-5,5h-30c-2.8,0-5-2.2-5-5V24C463,21.2,465.2,19,468,19z"/>
	</g>
	<g>
		<path class="st0" d="M516,16h42c2.8,0,5,2.2,5,5v42c0,2.8-2.2,5-5,5h-42c-2.8,0-5-2.2-5-5V21C511,18.2,513.2,16,516,16z"/>
		<path class="st1" d="M516,16h42c2.8,0,5,2.2,5,5v42c0,2.8-2.2,5-5,5h-42c-2.8,0-5-2.2-5-5V21C511,18.2,513.2,16,516,16z"/>
		<path class="st2" d="M522,19h30c2.8,0,5,2.2,5,5v30c0,2.8-2.2,5-5,5h-30c-2.8,0-5-2.2-5-5V24C517,21.2,519.2,19,522,19z"/>
		<path class="st2" d="M522,19h30c2.8,0,5,2.2,5,5v30c0,2.8-2.2,5-5,5h-30c-2.8,0-5-2.2-5-5V24C517,21.2,519.2,19,522,19z"/>
	</g>
	<g>
		<path class="st0" d="M570,16h42c2.8,0,5,2.2,5,5v42c0,2.8-2.2,5-5,5h-42c-2.8,0-5-2.2-5-5V21C565,18.2,567.2,16,570,16z"/>
		<path class="st1" d="M570,16h42c2.8,0,5,2.2,5,5v42c0,2.8-2.2,5-5,5h-42c-2.8,0-5-2.2-5-5V21C565,18.2,567.2,16,570,16z"/>
		<path class="st2" d="M576,19h30c2.8,0,5,2.2,5,5v30c0,2.8-2.2,5-5,5h-30c-2.8,0-5-2.2-5-5V24C571,21.2,573.2,19,576,19z"/>
		<path class="st2" d="M576,19h30c2.8,0,5,2.2,5,5v30c0,2.8-2.2,5-5,5h-30c-2.8,0-5-2.2-5-5V24C571,21.2,573.2,19,576,19z"/>
	</g>
	<g>
		<path class="st0" d="M624,16h42c2.8,0,5,2.2,5,5v42c0,2.8-2.2,5-5,5h-42c-2.8,0-5-2.2-5-5V21C619,18.2,621.2,16,624,16z"/>
		<path class="st1" d="M624,16h42c2.8,0,5,2.2,5,5v42c0,2.8-2.2,5-5,5h-42c-2.8,0-5-2.2-5-5V21C619,18.2,621.2,16,624,16z"/>
		<path class="st2" d="M630,19h30c2.8,0,5,2.2,5,5v30c0,2.8-2.2,5-5,5h-30c-2.8,0-5-2.2-5-5V24C625,21.2,627.2,19,630,19z"/>
		<path class="st2" d="M630,19h30c2.8,0,5,2.2,5,5v30c0,2.8-2.2,5-5,5h-30c-2.8,0-5-2.2-5-5V24C625,21.2,627.2,19,630,19z"/>
	</g>
	<g>
		<path class="st0" d="M678,16h42c2.8,0,5,2.2,5,5v42c0,2.8-2.2,5-5,5h-42c-2.8,0-5-2.2-5-5V21C673,18.2,675.2,16,678,16z"/>
		<path class="st1" d="M678,16h42c2.8,0,5,2.2,5,5v42c0,2.8-2.2,5-5,5h-42c-2.8,0-5-2.2-5-5V21C673,18.2,675.2,16,678,16z"/>
		<path class="st2" d="M684,19h30c2.8,0,5,2.2,5,5v30c0,2.8-2.2,5-5,5h-30c-2.8,0-5-2.2-5-5V24C679,21.2,681.2,19,684,19z"/>
		<path class="st2" d="M684,19h30c2.8,0,5,2.2,5,5v30c0,2.8-2.2,5-5,5h-30c-2.8,0-5-2.2-5-5V24C679,21.2,681.2,19,684,19z"/>
	</g>
	<g>
		<path class="st0" d="M732,16h42c2.8,0,5,2.2,5,5v42c0,2.8-2.2,5-5,5h-42c-2.8,0-5-2.2-5-5V21C727,18.2,729.2,16,732,16z"/>
		<path class="st1" d="M732,16h42c2.8,0,5,2.2,5,5v42c0,2.8-2.2,5-5,5h-42c-2.8,0-5-2.2-5-5V21C727,18.2,729.2,16,732,16z"/>
		<path class="st2" d="M738,19h30c2.8,0,5,2.2,5,5v30c0,2.8-2.2,5-5,5h-30c-2.8,0-5-2.2-5-5V24C733,21.2,735.2,19,738,19z"/>
		<path class="st2" d="M738,19h30c2.8,0,5,2.2,5,5v30c0,2.8-2.2,5-5,5h-30c-2.8,0-5-2.2-5-5V24C733,21.2,735.2,19,738,19z"/>
	</g>
	<g>
		<path class="st0" d="M786,16h55.5c2.8,0,5,2.2,5,5v42c0,2.8-2.2,5-5,5H786c-2.8,0-5-2.2-5-5V21C781,18.2,783.2,16,786,16z"/>
		<path class="st1" d="M786,16h55.5c2.8,0,5,2.2,5,5v42c0,2.8-2.2,5-5,5H786c-2.8,0-5-2.2-5-5V21C781,18.2,783.2,16,786,16z"/>
		<path class="st2" d="M792,19h43.5c2.8,0,5,2.2,5,5v30c0,2.8-2.2,5-5,5H792c-2.8,0-5-2.2-5-5V24C787,21.2,789.2,19,792,19z"/>
		<path class="st2" d="M792,19h43.5c2.8,0,5,2.2,5,5v30c0,2.8-2.2,5-5,5H792c-2.8,0-5-2.2-5-5V24C787,21.2,789.2,19,792,19z"/>
	</g>
	<g>
		<path class="st0" d="M21,70h82.5c2.8,0,5,2.2,5,5v42c0,2.8-2.2,5-5,5H21c-2.8,0-5-2.2-5-5V75C16,72.2,18.2,70,21,70z"/>
		<path class="st1" d="M21,70h82.5c2.8,0,5,2.2,5,5v42c0,2.8-2.2,5-5,5H21c-2.8,0-5-2.2-5-5V75C16,72.2,18.2,70,21,70z"/>
		<path class="st2" d="M27,73h70.5c2.8,0,5,2.2,5,5v30c0,2.8-2.2,5-5,5H27c-2.8,0-5-2.2-5-5V78C22,75.2,24.2,73,27,73z"/>
		<path class="st2" d="M27,73h70.5c2.8,0,5,2.2,5,5v30c0,2.8-2.2,5-5,5H27c-2.8,0-5-2.2-5-5V78C22,75.2,24.2,73,27,73z"/>
	</g>
	<g>
		<path class="st0" d="M115.5,70h42c2.8,0,5,2.2,5,5v42c0,2.8-2.2,5-5,5h-42c-2.8,0-5-2.2-5-5V75C110.5,72.2,112.7,70,115.5,70z"/>
		<path class="st1" d="M115.5,70h42c2.8,0,5,2.2,5,5v42c0,2.8-2.2,5-5,5h-42c-2.8,0-5-2.2-5-5V75C110.5,72.2,112.7,70,115.5,70z"/>
		<path class="st2" d="M121.5,73h30c2.8,0,5,2.2,5,5v30c0,2.8-2.2,5-5,5h-30c-2.8,0-5-2.2-5-5V78C116.5,75.2,118.7,73,121.5,73z"/>
		<path class="st2" d="M121.5,73h30c2.8,0,5,2.2,5,5v30c0,2.8-2.2,5-5,5h-30c-2.8,0-5-2.2-5-5V78C116.5,75.2,118.7,73,121.5,73z"/>
	</g>
	<g>
		<path class="st0" d="M169.5,70h42c2.8,0,5,2.2,5,5v42c0,2.8-2.2,5-5,5h-42c-2.8,0-5-2.2-5-5V75C164.5,72.2,166.7,70,169.5,70z"/>
		<path class="st1" d="M169.5,70h42c2.8,0,5,2.2,5,5v42c0,2.8-2.2,5-5,5h-42c-2.8,0-5-2.2-5-5V75C164.5,72.2,166.7,70,169.5,70z"/>
		<path class="st2" d="M175.5,73h30c2.8,0,5,2.2,5,5v30c0,2.8-2.2,5-5,5h-30c-2.8,0-5-2.2-5-5V78C170.5,75.2,172.7,73,175.5,73z"/>
		<path class="st2" d="M175.5,73h30c2.8,0,5,2.2,5,5v30c0,2.8-2.2,5-5,5h-30c-2.8,0-5-2.2-5-5V78C170.5,75.2,172.7,73,175.5,73z"/>
	</g>
	<g>
		<path class="st0" d="M223.5,70h42c2.8,0,5,2.2,5,5v42c0,2.8-2.2,5-5,5h-42c-2.8,0-5-2.2-5-5V75C218.5,72.2,220.7,70,223.5,70z"/>
		<path class="st1" d="M223.5,70h42c2.8,0,5,2.2,5,5v42c0,2.8-2.2,5-5,5h-42c-2.8,0-5-2.2-5-5V75C218.5,72.2,220.7,70,223.5,70z"/>
		<path class="st2" d="M229.5,73h30c2.8,0,5,2.2,5,5v30c0,2.8-2.2,5-5,5h-30c-2.8,0-5-2.2-5-5V78C224.5,75.2,226.7,73,229.5,73z"/>
		<path class="st2" d="M229.5,73h30c2.8,0,5,2.2,5,5v30c0,2.8-2.2,5-5,5h-30c-2.8,0-5-2.2-5-5V78C224.5,75.2,226.7,73,229.5,73z"/>
	</g>
	<g>
		<path class="st0" d="M277.5,70h42c2.8,0,5,2.2,5,5v42c0,2.8-2.2,5-5,5h-42c-2.8,0-5-2.2-5-5V75C272.5,72.2,274.7,70,277.5,70z"/>
		<path class="st1" d="M277.5,70h42c2.8,0,5,2.2,5,5v42c0,2.8-2.2,5-5,5h-42c-2.8,0-5-2.2-5-5V75C272.5,72.2,274.7,70,277.5,70z"/>
		<path class="st2" d="M283.5,73h30c2.8,0,5,2.2,5,5v30c0,2.8-2.2,5-5,5h-30c-2.8,0-5-2.2-5-5V78C278.5,75.2,280.7,73,283.5,73z"/>
		<path class="st2" d="M283.5,73h30c2.8,0,5,2.2,5,5v30c0,2.8-2.2,5-5,5h-30c-2.8,0-5-2.2-5-5V78C278.5,75.2,280.7,73,283.5,73z"/>
	</g>
	<g>
		<path class="st0" d="M331.5,70h69c2.8,0,5,2.2,5,5v42c0,2.8-2.2,5-5,5h-69c-2.8,0-5-2.2-5-5V75C326.5,72.2,328.7,70,331.5,70z"/>
		<path class="st1" d="M331.5,70h69c2.8,0,5,2.2,5,5v42c0,2.8-2.2,5-5,5h-69c-2.8,0-5-2.2-5-5V75C326.5,72.2,328.7,70,331.5,70z"/>
		<path class="st2" d="M337.5,73h57c2.8,0,5,2.2,5,5v30c0,2.8-2.2,5-5,5h-57c-2.8,0-5-2.2-5-5V78C332.5,75.2,334.7,73,337.5,73z"/>
		<path class="st2" d="M337.5,73h57c2.8,0,5,2.2,5,5v30c0,2.8-2.2,5-5,5h-57c-2.8,0-5-2.2-5-5V78C332.5,75.2,334.7,73,337.5,73z"/>
	</g>
	<g>
		<path class="st0" d="M462,70h69c2.8,0,5,2.2,5,5v42c0,2.8-2.2,5-5,5h-69c-2.8,0-5-2.2-5-5V75C457,72.2,459.2,70,462,70z"/>
		<path class="st1" d="M462,70h69c2.8,0,5,2.2,5,5v42c0,2.8-2.2,5-5,5h-69c-2.8,0-5-2.2-5-5V75C457,72.2,459.2,70,462,70z"/>
		<path class="st2" d="M468,73h57c2.8,0,5,2.2,5,5v30c0,2.8-2.2,5-5,5h-57c-2.8,0-5-2.2-5-5V78C463,75.2,465.2,73,468,73z"/>
		<path class="st2" d="M468,73h57c2.8,0,5,2.2,5,5v30c0,2.8-2.2,5-5,5h-57c-2.8,0-5-2.2-5-5V78C463,75.2,465.2,73,468,73z"/>
	</g>
	<g>
		<path class="st0" d="M543,70h42c2.8,0,5,2.2,5,5v42c0,2.8-2.2,5-5,5h-42c-2.8,0-5-2.2-5-5V75C538,72.2,540.2,70,543,70z"/>
		<path class="st1" d="M543,70h42c2.8,0,5,2.2,5,5v42c0,2.8-2.2,5-5,5h-42c-2.8,0-5-2.2-5-5V75C538,72.2,540.2,70,543,70z"/>
		<path class="st2" d="M549,73h30c2.8,0,5,2.2,5,5v30c0,2.8-2.2,5-5,5h-30c-2.8,0-5-2.2-5-5V78C544,75.2,546.2,73,549,73z"/>
		<path class="st2" d="M549,73h30c2.8,0,5,2.2,5,5v30c0,2.8-2.2,5-5,5h-30c-2.8,0-5-2.2-5-5V78C544,75.2,546.2,73,549,73z"/>
	</g>
	<g>
		<path class="st0" d="M597,70h42c2.8,0,5,2.2,5,5v42c0,2.8-2.2,5-5,5h-42c-2.8,0-5-2.2-5-5V75C592,72.2,594.2,70,597,70z"/>
		<path class="st1" d="M597,70h42c2.8,0,5,2.2,5,5v42c0,2.8-2.2,5-5,5h-42c-2.8,0-5-2.2-5-5V75C592,72.2,594.2,70,597,70z"/>
		<path class="st2" d="M603,73h30c2.8,0,5,2.2,5,5v30c0,2.8-2.2,5-5,5h-30c-2.8,0-5-2.2-5-5V78C598,75.2,600.2,73,603,73z"/>
		<path class="st2" d="M603,73h30c2.8,0,5,2.2,5,5v30c0,2.8-2.2,5-5,5h-30c-2.8,0-5-2.2-5-5V78C598,75.2,600.2,73,603,73z"/>
	</g>
	<g>
		<path class="st0" d="M651,70h42c2.8,0,5,2.2,5,5v42c0,2.8-2.2,5-5,5h-42c-2.8,0-5-2.2-5-5V75C646,72.2,648.2,70,651,70z"/>
		<path class="st1" d="M651,70h42c2.8,0,5,2.2,5,5v42c0,2.8-2.2,5-5,5h-42c-2.8,0-5-2.2-5-5V75C646,72.2,648.2,70,651,70z"/>
		<path class="st2" d="M657,73h30c2.8,0,5,2.2,5,5v30c0,2.8-2.2,5-5,5h-30c-2.8,0-5-2.2-5-5V78C652,75.2,654.2,73,657,73z"/>
		<path class="st2" d="M657,73h30c2.8,0,5,2.2,5,5v30c0,2.8-2.2,5-5,5h-30c-2.8,0-5-2.2-5-5V78C652,75.2,654.2,73,657,73z"/>
	</g>
	<g>
		<path class="st0" d="M705,70h42c2.8,0,5,2.2,5,5v42c0,2.8-2.2,5-5,5h-42c-2.8,0-5-2.2-5-5V75C700,72.2,702.2,70,705,70z"/>
		<path class="st1" d="M705,70h42c2.8,0,5,2.2,5,5v42c0,2.8-2.2,5-5,5h-42c-2.8,0-5-2.2-5-5V75C700,72.2,702.2,70,705,70z"/>
		<path class="st2" d="M711,73h30c2.8,0,5,2.2,5,5v30c0,2.8-2.2,5-5,5h-30c-2.8,0-5-2.2-5-5V78C706,75.2,708.2,73,711,73z"/>
		<path class="st2" d="M711,73h30c2.8,0,5,2.2,5,5v30c0,2.8-2.2,5-5,5h-30c-2.8,0-5-2.2-5-5V78C706,75.2,708.2,73,711,73z"/>
	</g>
	<g>
		<path class="st0" d="M759,70h82.5c2.8,0,5,2.2,5,5v42c0,2.8-2.2,5-5,5H759c-2.8,0-5-2.2-5-5V75C754,72.2,756.2,70,759,70z"/>
		<path class="st1" d="M759,70h82.5c2.8,0,5,2.2,5,5v42c0,2.8-2.2,5-5,5H759c-2.8,0-5-2.2-5-5V75C754,72.2,756.2,70,759,70z"/>
		<path class="st2" d="M765,73h70.5c2.8,0,5,2.2,5,5v30c0,2.8-2.2,5-5,5H765c-2.8,0-5-2.2-5-5V78C760,75.2,762.2,73,765,73z"/>
		<path class="st2" d="M765,73h70.5c2.8,0,5,2.2,5,5v30c0,2.8-2.2,5-5,5H765c-2.8,0-5-2.2-5-5V78C760,75.2,762.2,73,765,73z"/>
	</g>
	<g>
		<path class="st0" d="M21,124h69c2.8,0,5,2.2,5,5v42c0,2.8-2.2,5-5,5H21c-2.8,0-5-2.2-5-5v-42C16,126.2,18.2,124,21,124z"/>
		<path class="st1" d="M21,124h69c2.8,0,5,2.2,5,5v42c0,2.8-2.2,5-5,5H21c-2.8,0-5-2.2-5-5v-42C16,126.2,18.2,124,21,124z"/>
		<path class="st2" d="M27,127h57c2.8,0,5,2.2,5,5v30c0,2.8-2.2,5-5,5H27c-2.8,0-5-2.2-5-5v-30C22,129.2,24.2,127,27,127z"/>
		<path class="st2" d="M27,127h57c2.8,0,5,2.2,5,5v30c0,2.8-2.2,5-5,5H27c-2.8,0-5-2.2-5-5v-30C22,129.2,24.2,127,27,127z"/>
	</g>
	<g>
		<path class="st0" d="M102,124h42c2.8,0,5,2.2,5,5v42c0,2.8-2.2,5-5,5h-42c-2.8,0-5-2.2-5-5v-42C97,126.2,99.2,124,102,124z"/>
		<path class="st1" d="M102,124h42c2.8,0,5,2.2,5,5v42c0,2.8-2.2,5-5,5h-42c-2.8,0-5-2.2-5-5v-42C97,126.2,99.2,124,102,124z"/>
		<path class="st2" d="M108,127h30c2.8,0,5,2.2,5,5v30c0,2.8-2.2,5-5,5h-30c-2.8,0-5-2.2-5-5v-30C103,129.2,105.2,127,108,127z"/>
		<path class="st2" d="M108,127h30c2.8,0,5,2.2,5,5v30c0,2.8-2.2,5-5,5h-30c-2.8,0-5-2.2-5-5v-30C103,129.2,105.2,127,108,127z"/>
	</g>
	<g>
		<path class="st0" d="M156,124h42c2.8,0,5,2.2,5,5v42c0,2.8-2.2,5-5,5h-42c-2.8,0-5-2.2-5-5v-42C151,126.2,153.2,124,156,124z"/>
		<path class="st1" d="M156,124h42c2.8,0,5,2.2,5,5v42c0,2.8-2.2,5-5,5h-42c-2.8,0-5-2.2-5-5v-42C151,126.2,153.2,124,156,124z"/>
		<path class="st2" d="M162,127h30c2.8,0,5,2.2,5,5v30c0,2.8-2.2,5-5,5h-30c-2.8,0-5-2.2-5-5v-30C157,129.2,159.2,127,162,127z"/>
		<path class="st2" d="M162,127h30c2.8,0,5,2.2,5,5v30c0,2.8-2.2,5-5,5h-30c-2.8,0-5-2.2-5-5v-30C157,129.2,159.2,127,162,127z"/>
	</g>
	<g>
		<path class="st0" d="M210,124h42c2.8,0,5,2.2,5,5v42c0,2.8-2.2,5-5,5h-42c-2.8,0-5-2.2-5-5v-42C205,126.2,207.2,124,210,124z"/>
		<path class="st1" d="M210,124h42c2.8,0,5,2.2,5,5v42c0,2.8-2.2,5-5,5h-42c-2.8,0-5-2.2-5-5v-42C205,126.2,207.2,124,210,124z"/>
		<path class="st2" d="M216,127h30c2.8,0,5,2.2,5,5v30c0,2.8-2.2,5-5,5h-30c-2.8,0-5-2.2-5-5v-30C211,129.2,213.2,127,216,127z"/>
		<path class="st2" d="M216,127h30c2.8,0,5,2.2,5,5v30c0,2.8-2.2,5-5,5h-30c-2.8,0-5-2.2-5-5v-30C211,129.2,213.2,127,216,127z"/>
	</g>
	<g>
		<path class="st0" d="M264,124h42c2.8,0,5,2.2,5,5v42c0,2.8-2.2,5-5,5h-42c-2.8,0-5-2.2-5-5v-42C259,126.2,261.2,124,264,124z"/>
		<path class="st1" d="M264,124h42c2.8,0,5,2.2,5,5v42c0,2.8-2.2,5-5,5h-42c-2.8,0-5-2.2-5-5v-42C259,126.2,261.2,124,264,124z"/>
		<path class="st2" d="M270,127h30c2.8,0,5,2.2,5,5v30c0,2.8-2.2,5-5,5h-30c-2.8,0-5-2.2-5-5v-30C265,129.2,267.2,127,270,127z"/>
		<path class="st2" d="M270,127h30c2.8,0,5,2.2,5,5v30c0,2.8-2.2,5-5,5h-30c-2.8,0-5-2.2-5-5v-30C265,129.2,267.2,127,270,127z"/>
	</g>
	<g>
		<path class="st0" d="M318,124h82.5c2.8,0,5,2.2,5,5v42c0,2.8-2.2,5-5,5H318c-2.8,0-5-2.2-5-5v-42C313,126.2,315.2,124,318,124z"/>
		<path class="st1" d="M318,124h82.5c2.8,0,5,2.2,5,5v42c0,2.8-2.2,5-5,5H318c-2.8,0-5-2.2-5-5v-42C313,126.2,315.2,124,318,124z"/>
		<path class="st2" d="M324,127h70.5c2.8,0,5,2.2,5,5v30c0,2.8-2.2,5-5,5H324c-2.8,0-5-2.2-5-5v-30C319,129.2,321.2,127,324,127z"/>
		<path class="st2" d="M324,127h70.5c2.8,0,5,2.2,5,5v30c0,2.8-2.2,5-5,5H324c-2.8,0-5-2.2-5-5v-30C319,129.2,321.2,127,324,127z"/>
	</g>
	<g>
		<path class="st0" d="M462,124h82.5c2.8,0,5,2.2,5,5v42c0,2.8-2.2,5-5,5H462c-2.8,0-5-2.2-5-5v-42C457,126.2,459.2,124,462,124z"/>
		<path class="st1" d="M462,124h82.5c2.8,0,5,2.2,5,5v42c0,2.8-2.2,5-5,5H462c-2.8,0-5-2.2-5-5v-42C457,126.2,459.2,124,462,124z"/>
		<path class="st2" d="M468,127h70.5c2.8,0,5,2.2,5,5v30c0,2.8-2.2,5-5,5H468c-2.8,0-5-2.2-5-5v-30C463,129.2,465.2,127,468,127z"/>
		<path class="st2" d="M468,127h70.5c2.8,0,5,2.2,5,5v30c0,2.8-2.2,5-5,5H468c-2.8,0-5-2.2-5-5v-30C463,129.2,465.2,127,468,127z"/>
	</g>
	<g>
		<path class="st0" d="M556.5,124h42c2.8,0,5,2.2,5,5v42c0,2.8-2.2,5-5,5h-42c-2.8,0-5-2.2-5-5v-42C551.5,126.2,553.7,124,556.5,124
			z"/>
		<path class="st1" d="M556.5,124h42c2.8,0,5,2.2,5,5v42c0,2.8-2.2,5-5,5h-42c-2.8,0-5-2.2-5-5v-42C551.5,126.2,553.7,124,556.5,124
			z"/>
		<path class="st2" d="M562.5,127h30c2.8,0,5,2.2,5,5v30c0,2.8-2.2,5-5,5h-30c-2.8,0-5-2.2-5-5v-30C557.5,129.2,559.7,127,562.5,127
			z"/>
		<path class="st2" d="M562.5,127h30c2.8,0,5,2.2,5,5v30c0,2.8-2.2,5-5,5h-30c-2.8,0-5-2.2-5-5v-30C557.5,129.2,559.7,127,562.5,127
			z"/>
	</g>
	<g>
		<path class="st0" d="M610.5,124h42c2.8,0,5,2.2,5,5v42c0,2.8-2.2,5-5,5h-42c-2.8,0-5-2.2-5-5v-42C605.5,126.2,607.7,124,610.5,124
			z"/>
		<path class="st1" d="M610.5,124h42c2.8,0,5,2.2,5,5v42c0,2.8-2.2,5-5,5h-42c-2.8,0-5-2.2-5-5v-42C605.5,126.2,607.7,124,610.5,124
			z"/>
		<path class="st2" d="M616.5,127h30c2.8,0,5,2.2,5,5v30c0,2.8-2.2,5-5,5h-30c-2.8,0-5-2.2-5-5v-30C611.5,129.2,613.7,127,616.5,127
			z"/>
		<path class="st2" d="M616.5,127h30c2.8,0,5,2.2,5,5v30c0,2.8-2.2,5-5,5h-30c-2.8,0-5-2.2-5-5v-30C611.5,129.2,613.7,127,616.5,127
			z"/>
	</g>
	<g>
		<path class="st0" d="M664.5,124h42c2.8,0,5,2.2,5,5v42c0,2.8-2.2,5-5,5h-42c-2.8,0-5-2.2-5-5v-42C659.5,126.2,661.7,124,664.5,124
			z"/>
		<path class="st1" d="M664.5,124h42c2.8,0,5,2.2,5,5v42c0,2.8-2.2,5-5,5h-42c-2.8,0-5-2.2-5-5v-42C659.5,126.2,661.7,124,664.5,124
			z"/>
		<path class="st2" d="M670.5,127h30c2.8,0,5,2.2,5,5v30c0,2.8-2.2,5-5,5h-30c-2.8,0-5-2.2-5-5v-30C665.5,129.2,667.7,127,670.5,127
			z"/>
		<path class="st2" d="M670.5,127h30c2.8,0,5,2.2,5,5v30c0,2.8-2.2,5-5,5h-30c-2.8,0-5-2.2-5-5v-30C665.5,129.2,667.7,127,670.5,127
			z"/>
	</g>
	<g>
		<path class="st0" d="M718.5,124h42c2.8,0,5,2.2,5,5v42c0,2.8-2.2,5-5,5h-42c-2.8,0-5-2.2-5-5v-42C713.5,126.2,715.7,124,718.5,124
			z"/>
		<path class="st1" d="M718.5,124h42c2.8,0,5,2.2,5,5v42c0,2.8-2.2,5-5,5h-42c-2.8,0-5-2.2-5-5v-42C713.5,126.2,715.7,124,718.5,124
			z"/>
		<path class="st2" d="M724.5,127h30c2.8,0,5,2.2,5,5v30c0,2.8-2.2,5-5,5h-30c-2.8,0-5-2.2-5-5v-30C719.5,129.2,721.7,127,724.5,127
			z"/>
		<path class="st2" d="M724.5,127h30c2.8,0,5,2.2,5,5v30c0,2.8-2.2,5-5,5h-30c-2.8,0-5-2.2-5-5v-30C719.5,129.2,721.7,127,724.5,127
			z"/>
	</g>
	<g>
		<path class="st0" d="M772.5,124h69c2.8,0,5,2.2,5,5v42c0,2.8-2.2,5-5,5h-69c-2.8,0-5-2.2-5-5v-42C767.5,126.2,769.7,124,772.5,124
			z"/>
		<path class="st1" d="M772.5,124h69c2.8,0,5,2.2,5,5v42c0,2.8-2.2,5-5,5h-69c-2.8,0-5-2.2-5-5v-42C767.5,126.2,769.7,124,772.5,124
			z"/>
		<path class="st2" d="M778.5,127h57c2.8,0,5,2.2,5,5v30c0,2.8-2.2,5-5,5h-57c-2.8,0-5-2.2-5-5v-30C773.5,129.2,775.7,127,778.5,127
			z"/>
		<path class="st2" d="M778.5,127h57c2.8,0,5,2.2,5,5v30c0,2.8-2.2,5-5,5h-57c-2.8,0-5-2.2-5-5v-30C773.5,129.2,775.7,127,778.5,127
			z"/>
	</g>
	<g>
		<path class="st0" d="M21,178h42c2.8,0,5,2.2,5,5v42c0,2.8-2.2,5-5,5H21c-2.8,0-5-2.2-5-5v-42C16,180.2,18.2,178,21,178z"/>
		<path class="st1" d="M21,178h42c2.8,0,5,2.2,5,5v42c0,2.8-2.2,5-5,5H21c-2.8,0-5-2.2-5-5v-42C16,180.2,18.2,178,21,178z"/>
		<path class="st2" d="M27,181h30c2.8,0,5,2.2,5,5v30c0,2.8-2.2,5-5,5H27c-2.8,0-5-2.2-5-5v-30C22,183.2,24.2,181,27,181z"/>
		<path class="st2" d="M27,181h30c2.8,0,5,2.2,5,5v30c0,2.8-2.2,5-5,5H27c-2.8,0-5-2.2-5-5v-30C22,183.2,24.2,181,27,181z"/>
	</g>
	<g>
		<path class="st0" d="M75,178h42c2.8,0,5,2.2,5,5v42c0,2.8-2.2,5-5,5H75c-2.8,0-5-2.2-5-5v-42C70,180.2,72.2,178,75,178z"/>
		<path class="st1" d="M75,178h42c2.8,0,5,2.2,5,5v42c0,2.8-2.2,5-5,5H75c-2.8,0-5-2.2-5-5v-42C70,180.2,72.2,178,75,178z"/>
		<path class="st2" d="M81,181h30c2.8,0,5,2.2,5,5v30c0,2.8-2.2,5-5,5H81c-2.8,0-5-2.2-5-5v-30C76,183.2,78.2,181,81,181z"/>
		<path class="st2" d="M81,181h30c2.8,0,5,2.2,5,5v30c0,2.8-2.2,5-5,5H81c-2.8,0-5-2.2-5-5v-30C76,183.2,78.2,181,81,181z"/>
	</g>
	<g>
		<path class="st0" d="M129,178h42c2.8,0,5,2.2,5,5v42c0,2.8-2.2,5-5,5h-42c-2.8,0-5-2.2-5-5v-42C124,180.2,126.2,178,129,178z"/>
		<path class="st1" d="M129,178h42c2.8,0,5,2.2,5,5v42c0,2.8-2.2,5-5,5h-42c-2.8,0-5-2.2-5-5v-42C124,180.2,126.2,178,129,178z"/>
		<path class="st2" d="M135,181h30c2.8,0,5,2.2,5,5v30c0,2.8-2.2,5-5,5h-30c-2.8,0-5-2.2-5-5v-30C130,183.2,132.2,181,135,181z"/>
		<path class="st2" d="M135,181h30c2.8,0,5,2.2,5,5v30c0,2.8-2.2,5-5,5h-30c-2.8,0-5-2.2-5-5v-30C130,183.2,132.2,181,135,181z"/>
	</g>
	<g>
		<path class="st0" d="M183,178h42c2.8,0,5,2.2,5,5v42c0,2.8-2.2,5-5,5h-42c-2.8,0-5-2.2-5-5v-42C178,180.2,180.2,178,183,178z"/>
		<path class="st1" d="M183,178h42c2.8,0,5,2.2,5,5v42c0,2.8-2.2,5-5,5h-42c-2.8,0-5-2.2-5-5v-42C178,180.2,180.2,178,183,178z"/>
		<path class="st2" d="M189,181h30c2.8,0,5,2.2,5,5v30c0,2.8-2.2,5-5,5h-30c-2.8,0-5-2.2-5-5v-30C184,183.2,186.2,181,189,181z"/>
		<path class="st2" d="M189,181h30c2.8,0,5,2.2,5,5v30c0,2.8-2.2,5-5,5h-30c-2.8,0-5-2.2-5-5v-30C184,183.2,186.2,181,189,181z"/>
	</g>
	<g>
		<path class="st0" d="M237,178h42c2.8,0,5,2.2,5,5v42c0,2.8-2.2,5-5,5h-42c-2.8,0-5-2.2-5-5v-42C232,180.2,234.2,178,237,178z"/>
		<path class="st1" d="M237,178h42c2.8,0,5,2.2,5,5v42c0,2.8-2.2,5-5,5h-42c-2.8,0-5-2.2-5-5v-42C232,180.2,234.2,178,237,178z"/>
		<path class="st2" d="M243,181h30c2.8,0,5,2.2,5,5v30c0,2.8-2.2,5-5,5h-30c-2.8,0-5-2.2-5-5v-30C238,183.2,240.2,181,243,181z"/>
		<path class="st2" d="M243,181h30c2.8,0,5,2.2,5,5v30c0,2.8-2.2,5-5,5h-30c-2.8,0-5-2.2-5-5v-30C238,183.2,240.2,181,243,181z"/>
	</g>
	<g>
		<path class="st0" d="M291,178h42c2.8,0,5,2.2,5,5v42c0,2.8-2.2,5-5,5h-42c-2.8,0-5-2.2-5-5v-42C286,180.2,288.2,178,291,178z"/>
		<path class="st1" d="M291,178h42c2.8,0,5,2.2,5,5v42c0,2.8-2.2,5-5,5h-42c-2.8,0-5-2.2-5-5v-42C286,180.2,288.2,178,291,178z"/>
		<path class="st2" d="M297,181h30c2.8,0,5,2.2,5,5v30c0,2.8-2.2,5-5,5h-30c-2.8,0-5-2.2-5-5v-30C292,183.2,294.2,181,297,181z"/>
		<path class="st2" d="M297,181h30c2.8,0,5,2.2,5,5v30c0,2.8-2.2,5-5,5h-30c-2.8,0-5-2.2-5-5v-30C292,183.2,294.2,181,297,181z"/>
	</g>
	<g>
		<path class="st0" d="M345,178h55.5c2.8,0,5,2.2,5,5v42c0,2.8-2.2,5-5,5H345c-2.8,0-5-2.2-5-5v-42C340,180.2,342.2,178,345,178z"/>
		<path class="st1" d="M345,178h55.5c2.8,0,5,2.2,5,5v42c0,2.8-2.2,5-5,5H345c-2.8,0-5-2.2-5-5v-42C340,180.2,342.2,178,345,178z"/>
		<path class="st2" d="M351,181h43.5c2.8,0,5,2.2,5,5v30c0,2.8-2.2,5-5,5H351c-2.8,0-5-2.2-5-5v-30C346,183.2,348.2,181,351,181z"/>
		<path class="st2" d="M351,181h43.5c2.8,0,5,2.2,5,5v30c0,2.8-2.2,5-5,5H351c-2.8,0-5-2.2-5-5v-30C346,183.2,348.2,181,351,181z"/>
	</g>
	<g>
		<path class="st0" d="M462,178h55.5c2.8,0,5,2.2,5,5v42c0,2.8-2.2,5-5,5H462c-2.8,0-5-2.2-5-5v-42C457,180.2,459.2,178,462,178z"/>
		<path class="st1" d="M462,178h55.5c2.8,0,5,2.2,5,5v42c0,2.8-2.2,5-5,5H462c-2.8,0-5-2.2-5-5v-42C457,180.2,459.2,178,462,178z"/>
		<path class="st2" d="M468,181h43.5c2.8,0,5,2.2,5,5v30c0,2.8-2.2,5-5,5H468c-2.8,0-5-2.2-5-5v-30C463,183.2,465.2,181,468,181z"/>
		<path class="st2" d="M468,181h43.5c2.8,0,5,2.2,5,5v30c0,2.8-2.2,5-5,5H468c-2.8,0-5-2.2-5-5v-30C463,183.2,465.2,181,468,181z"/>
	</g>
	<g>
		<path class="st0" d="M529.5,178h42c2.8,0,5,2.2,5,5v42c0,2.8-2.2,5-5,5h-42c-2.8,0-5-2.2-5-5v-42C524.5,180.2,526.7,178,529.5,178
			z"/>
		<path class="st1" d="M529.5,178h42c2.8,0,5,2.2,5,5v42c0,2.8-2.2,5-5,5h-42c-2.8,0-5-2.2-5-5v-42C524.5,180.2,526.7,178,529.5,178
			z"/>
		<path class="st2" d="M535.5,181h30c2.8,0,5,2.2,5,5v30c0,2.8-2.2,5-5,5h-30c-2.8,0-5-2.2-5-5v-30C530.5,183.2,532.7,181,535.5,181
			z"/>
		<path class="st2" d="M535.5,181h30c2.8,0,5,2.2,5,5v30c0,2.8-2.2,5-5,5h-30c-2.8,0-5-2.2-5-5v-30C530.5,183.2,532.7,181,535.5,181
			z"/>
	</g>
	<g>
		<path class="st0" d="M583.5,178h42c2.8,0,5,2.2,5,5v42c0,2.8-2.2,5-5,5h-42c-2.8,0-5-2.2-5-5v-42C578.5,180.2,580.7,178,583.5,178
			z"/>
		<path class="st1" d="M583.5,178h42c2.8,0,5,2.2,5,5v42c0,2.8-2.2,5-5,5h-42c-2.8,0-5-2.2-5-5v-42C578.5,180.2,580.7,178,583.5,178
			z"/>
		<path class="st2" d="M589.5,181h30c2.8,0,5,2.2,5,5v30c0,2.8-2.2,5-5,5h-30c-2.8,0-5-2.2-5-5v-30C584.5,183.2,586.7,181,589.5,181
			z"/>
		<path class="st2" d="M589.5,181h30c2.8,0,5,2.2,5,5v30c0,2.8-2.2,5-5,5h-30c-2.8,0-5-2.2-5-5v-30C584.5,183.2,586.7,181,589.5,181
			z"/>
	</g>
	<g>
		<path class="st0" d="M637.5,178h42c2.8,0,5,2.2,5,5v42c0,2.8-2.2,5-5,5h-42c-2.8,0-5-2.2-5-5v-42C632.5,180.2,634.7,178,637.5,178
			z"/>
		<path class="st1" d="M637.5,178h42c2.8,0,5,2.2,5,5v42c0,2.8-2.2,5-5,5h-42c-2.8,0-5-2.2-5-5v-42C632.5,180.2,634.7,178,637.5,178
			z"/>
		<path class="st2" d="M643.5,181h30c2.8,0,5,2.2,5,5v30c0,2.8-2.2,5-5,5h-30c-2.8,0-5-2.2-5-5v-30C638.5,183.2,640.7,181,643.5,181
			z"/>
		<path class="st2" d="M643.5,181h30c2.8,0,5,2.2,5,5v30c0,2.8-2.2,5-5,5h-30c-2.8,0-5-2.2-5-5v-30C638.5,183.2,640.7,181,643.5,181
			z"/>
	</g>
	<g>
		<path class="st0" d="M691.5,178h42c2.8,0,5,2.2,5,5v42c0,2.8-2.2,5-5,5h-42c-2.8,0-5-2.2-5-5v-42C686.5,180.2,688.7,178,691.5,178
			z"/>
		<path class="st1" d="M691.5,178h42c2.8,0,5,2.2,5,5v42c0,2.8-2.2,5-5,5h-42c-2.8,0-5-2.2-5-5v-42C686.5,180.2,688.7,178,691.5,178
			z"/>
		<path class="st2" d="M697.5,181h30c2.8,0,5,2.2,5,5v30c0,2.8-2.2,5-5,5h-30c-2.8,0-5-2.2-5-5v-30C692.5,183.2,694.7,181,697.5,181
			z"/>
		<path class="st2" d="M697.5,181h30c2.8,0,5,2.2,5,5v30c0,2.8-2.2,5-5,5h-30c-2.8,0-5-2.2-5-5v-30C692.5,183.2,694.7,181,697.5,181
			z"/>
	</g>
	<g>
		<path class="st0" d="M745.5,178h42c2.8,0,5,2.2,5,5v42c0,2.8-2.2,5-5,5h-42c-2.8,0-5-2.2-5-5v-42C740.5,180.2,742.7,178,745.5,178
			z"/>
		<path class="st1" d="M745.5,178h42c2.8,0,5,2.2,5,5v42c0,2.8-2.2,5-5,5h-42c-2.8,0-5-2.2-5-5v-42C740.5,180.2,742.7,178,745.5,178
			z"/>
		<path class="st2" d="M751.5,181h30c2.8,0,5,2.2,5,5v30c0,2.8-2.2,5-5,5h-30c-2.8,0-5-2.2-5-5v-30C746.5,183.2,748.7,181,751.5,181
			z"/>
		<path class="st2" d="M751.5,181h30c2.8,0,5,2.2,5,5v30c0,2.8-2.2,5-5,5h-30c-2.8,0-5-2.2-5-5v-30C746.5,183.2,748.7,181,751.5,181
			z"/>
	</g>
	<g>
		<path class="st0" d="M799.5,178h42c2.8,0,5,2.2,5,5v42c0,2.8-2.2,5-5,5h-42c-2.8,0-5-2.2-5-5v-42C794.5,180.2,796.7,178,799.5,178
			z"/>
		<path class="st1" d="M799.5,178h42c2.8,0,5,2.2,5,5v42c0,2.8-2.2,5-5,5h-42c-2.8,0-5-2.2-5-5v-42C794.5,180.2,796.7,178,799.5,178
			z"/>
		<path class="st2" d="M805.5,181h30c2.8,0,5,2.2,5,5v30c0,2.8-2.2,5-5,5h-30c-2.8,0-5-2.2-5-5v-30C800.5,183.2,802.7,181,805.5,181
			z"/>
		<path class="st2" d="M805.5,181h30c2.8,0,5,2.2,5,5v30c0,2.8-2.2,5-5,5h-30c-2.8,0-5-2.2-5-5v-30C800.5,183.2,802.7,181,805.5,181
			z"/>
	</g>
	<g>
		<path class="st0" d="M21,232h42c2.8,0,5,2.2,5,5v42c0,2.8-2.2,5-5,5H21c-2.8,0-5-2.2-5-5v-42C16,234.2,18.2,232,21,232z"/>
		<path class="st1" d="M21,232h42c2.8,0,5,2.2,5,5v42c0,2.8-2.2,5-5,5H21c-2.8,0-5-2.2-5-5v-42C16,234.2,18.2,232,21,232z"/>
		<path class="st2" d="M27,235h30c2.8,0,5,2.2,5,5v30c0,2.8-2.2,5-5,5H27c-2.8,0-5-2.2-5-5v-30C22,237.2,24.2,235,27,235z"/>
		<path class="st2" d="M27,235h30c2.8,0,5,2.2,5,5v30c0,2.8-2.2,5-5,5H27c-2.8,0-5-2.2-5-5v-30C22,237.2,24.2,235,27,235z"/>
	</g>
	<g>
		<path class="st0" d="M75,232h42c2.8,0,5,2.2,5,5v42c0,2.8-2.2,5-5,5H75c-2.8,0-5-2.2-5-5v-42C70,234.2,72.2,232,75,232z"/>
		<path class="st1" d="M75,232h42c2.8,0,5,2.2,5,5v42c0,2.8-2.2,5-5,5H75c-2.8,0-5-2.2-5-5v-42C70,234.2,72.2,232,75,232z"/>
		<path class="st2" d="M81,235h30c2.8,0,5,2.2,5,5v30c0,2.8-2.2,5-5,5H81c-2.8,0-5-2.2-5-5v-30C76,237.2,78.2,235,81,235z"/>
		<path class="st2" d="M81,235h30c2.8,0,5,2.2,5,5v30c0,2.8-2.2,5-5,5H81c-2.8,0-5-2.2-5-5v-30C76,237.2,78.2,235,81,235z"/>
	</g>
	<g>
		<path class="st0" d="M129,232h42c2.8,0,5,2.2,5,5v42c0,2.8-2.2,5-5,5h-42c-2.8,0-5-2.2-5-5v-42C124,234.2,126.2,232,129,232z"/>
		<path class="st1" d="M129,232h42c2.8,0,5,2.2,5,5v42c0,2.8-2.2,5-5,5h-42c-2.8,0-5-2.2-5-5v-42C124,234.2,126.2,232,129,232z"/>
		<path class="st2" d="M135,235h30c2.8,0,5,2.2,5,5v30c0,2.8-2.2,5-5,5h-30c-2.8,0-5-2.2-5-5v-30C130,237.2,132.2,235,135,235z"/>
		<path class="st2" d="M135,235h30c2.8,0,5,2.2,5,5v30c0,2.8-2.2,5-5,5h-30c-2.8,0-5-2.2-5-5v-30C130,237.2,132.2,235,135,235z"/>
	</g>
	<g>
		<path class="st0" d="M183,232h55.5c2.8,0,5,2.2,5,5v42c0,2.8-2.2,5-5,5H183c-2.8,0-5-2.2-5-5v-42C178,234.2,180.2,232,183,232z"/>
		<path class="st1" d="M183,232h55.5c2.8,0,5,2.2,5,5v42c0,2.8-2.2,5-5,5H183c-2.8,0-5-2.2-5-5v-42C178,234.2,180.2,232,183,232z"/>
		<path class="st2" d="M189,235h43.5c2.8,0,5,2.2,5,5v30c0,2.8-2.2,5-5,5H189c-2.8,0-5-2.2-5-5v-30C184,237.2,186.2,235,189,235z"/>
		<path class="st2" d="M189,235h43.5c2.8,0,5,2.2,5,5v30c0,2.8-2.2,5-5,5H189c-2.8,0-5-2.2-5-5v-30C184,237.2,186.2,235,189,235z"/>
	</g>
	<g>
		<path class="st0" d="M250.5,232h69c2.8,0,5,2.2,5,5v42c0,2.8-2.2,5-5,5h-69c-2.8,0-5-2.2-5-5v-42C245.5,234.2,247.7,232,250.5,232
			z"/>
		<path class="st1" d="M250.5,232h69c2.8,0,5,2.2,5,5v42c0,2.8-2.2,5-5,5h-69c-2.8,0-5-2.2-5-5v-42C245.5,234.2,247.7,232,250.5,232
			z"/>
		<path class="st2" d="M256.5,235h57c2.8,0,5,2.2,5,5v30c0,2.8-2.2,5-5,5h-57c-2.8,0-5-2.2-5-5v-30C251.5,237.2,253.7,235,256.5,235
			z"/>
		<path class="st2" d="M256.5,235h57c2.8,0,5,2.2,5,5v30c0,2.8-2.2,5-5,5h-57c-2.8,0-5-2.2-5-5v-30C251.5,237.2,253.7,235,256.5,235
			z"/>
	</g>
	<g>
		<path class="st0" d="M331.5,232h69c2.8,0,5,2.2,5,5v42c0,2.8-2.2,5-5,5h-69c-2.8,0-5-2.2-5-5v-42C326.5,234.2,328.7,232,331.5,232
			z"/>
		<path class="st1" d="M331.5,232h69c2.8,0,5,2.2,5,5v42c0,2.8-2.2,5-5,5h-69c-2.8,0-5-2.2-5-5v-42C326.5,234.2,328.7,232,331.5,232
			z"/>
		<path class="st2" d="M337.5,235h57c2.8,0,5,2.2,5,5v30c0,2.8-2.2,5-5,5h-57c-2.8,0-5-2.2-5-5v-30C332.5,237.2,334.7,235,337.5,235
			z"/>
		<path class="st2" d="M337.5,235h57c2.8,0,5,2.2,5,5v30c0,2.8-2.2,5-5,5h-57c-2.8,0-5-2.2-5-5v-30C332.5,237.2,334.7,235,337.5,235
			z"/>
	</g>
	<g>
		<path class="st0" d="M462,232h69c2.8,0,5,2.2,5,5v42c0,2.8-2.2,5-5,5h-69c-2.8,0-5-2.2-5-5v-42C457,234.2,459.2,232,462,232z"/>
		<path class="st1" d="M462,232h69c2.8,0,5,2.2,5,5v42c0,2.8-2.2,5-5,5h-69c-2.8,0-5-2.2-5-5v-42C457,234.2,459.2,232,462,232z"/>
		<path class="st2" d="M468,235h57c2.8,0,5,2.2,5,5v30c0,2.8-2.2,5-5,5h-57c-2.8,0-5-2.2-5-5v-30C463,237.2,465.2,235,468,235z"/>
		<path class="st2" d="M468,235h57c2.8,0,5,2.2,5,5v30c0,2.8-2.2,5-5,5h-57c-2.8,0-5-2.2-5-5v-30C463,237.2,465.2,235,468,235z"/>
	</g>
	<g>
		<path class="st0" d="M543,232h69c2.8,0,5,2.2,5,5v42c0,2.8-2.2,5-5,5h-69c-2.8,0-5-2.2-5-5v-42C538,234.2,540.2,232,543,232z"/>
		<path class="st1" d="M543,232h69c2.8,0,5,2.2,5,5v42c0,2.8-2.2,5-5,5h-69c-2.8,0-5-2.2-5-5v-42C538,234.2,540.2,232,543,232z"/>
		<path class="st2" d="M549,235h57c2.8,0,5,2.2,5,5v30c0,2.8-2.2,5-5,5h-57c-2.8,0-5-2.2-5-5v-30C544,237.2,546.2,235,549,235z"/>
		<path class="st2" d="M549,235h57c2.8,0,5,2.2,5,5v30c0,2.8-2.2,5-5,5h-57c-2.8,0-5-2.2-5-5v-30C544,237.2,546.2,235,549,235z"/>
	</g>
	<g>
		<path class="st0" d="M624,232h55.5c2.8,0,5,2.2,5,5v42c0,2.8-2.2,5-5,5H624c-2.8,0-5-2.2-5-5v-42C619,234.2,621.2,232,624,232z"/>
		<path class="st1" d="M624,232h55.5c2.8,0,5,2.2,5,5v42c0,2.8-2.2,5-5,5H624c-2.8,0-5-2.2-5-5v-42C619,234.2,621.2,232,624,232z"/>
		<path class="st2" d="M630,235h43.5c2.8,0,5,2.2,5,5v30c0,2.8-2.2,5-5,5H630c-2.8,0-5-2.2-5-5v-30C625,237.2,627.2,235,630,235z"/>
		<path class="st2" d="M630,235h43.5c2.8,0,5,2.2,5,5v30c0,2.8-2.2,5-5,5H630c-2.8,0-5-2.2-5-5v-30C625,237.2,627.2,235,630,235z"/>
	</g>
	<g>
		<path class="st0" d="M691.5,232h42c2.8,0,5,2.2,5,5v42c0,2.8-2.2,5-5,5h-42c-2.8,0-5-2.2-5-5v-42C686.5,234.2,688.7,232,691.5,232
			z"/>
		<path class="st1" d="M691.5,232h42c2.8,0,5,2.2,5,5v42c0,2.8-2.2,5-5,5h-42c-2.8,0-5-2.2-5-5v-42C686.5,234.2,688.7,232,691.5,232
			z"/>
		<path class="st2" d="M697.5,235h30c2.8,0,5,2.2,5,5v30c0,2.8-2.2,5-5,5h-30c-2.8,0-5-2.2-5-5v-30C692.5,237.2,694.7,235,697.5,235
			z"/>
		<path class="st2" d="M697.5,235h30c2.8,0,5,2.2,5,5v30c0,2.8-2.2,5-5,5h-30c-2.8,0-5-2.2-5-5v-30C692.5,237.2,694.7,235,697.5,235
			z"/>
	</g>
	<g>
		<path class="st0" d="M745.5,232h42c2.8,0,5,2.2,5,5v42c0,2.8-2.2,5-5,5h-42c-2.8,0-5-2.2-5-5v-42C740.5,234.2,742.7,232,745.5,232
			z"/>
		<path class="st1" d="M745.5,232h42c2.8,0,5,2.2,5,5v42c0,2.8-2.2,5-5,5h-42c-2.8,0-5-2.2-5-5v-42C740.5,234.2,742.7,232,745.5,232
			z"/>
		<path class="st2" d="M751.5,235h30c2.8,0,5,2.2,5,5v30c0,2.8-2.2,5-5,5h-30c-2.8,0-5-2.2-5-5v-30C746.5,237.2,748.7,235,751.5,235
			z"/>
		<path class="st2" d="M751.5,235h30c2.8,0,5,2.2,5,5v30c0,2.8-2.2,5-5,5h-30c-2.8,0-5-2.2-5-5v-30C746.5,237.2,748.7,235,751.5,235
			z"/>
	</g>
	<g>
		<path class="st0" d="M799.5,232h42c2.8,0,5,2.2,5,5v42c0,2.8-2.2,5-5,5h-42c-2.8,0-5-2.2-5-5v-42C794.5,234.2,796.7,232,799.5,232
			z"/>
		<path class="st1" d="M799.5,232h42c2.8,0,5,2.2,5,5v42c0,2.8-2.2,5-5,5h-42c-2.8,0-5-2.2-5-5v-42C794.5,234.2,796.7,232,799.5,232
			z"/>
		<path class="st2" d="M805.5,235h30c2.8,0,5,2.2,5,5v30c0,2.8-2.2,5-5,5h-30c-2.8,0-5-2.2-5-5v-30C800.5,237.2,802.7,235,805.5,235
			z"/>
		<path class="st2" d="M805.5,235h30c2.8,0,5,2.2,5,5v30c0,2.8-2.2,5-5,5h-30c-2.8,0-5-2.2-5-5v-30C800.5,237.2,802.7,235,805.5,235
			z"/>
	</g>
</g>
<g id="letters">
	<text transform="matrix(1 0 0 1 26.8121 107.3206)" class="st3 st4">tab</text>
	<text transform="matrix(1 0 0 1 26.8121 53.6137)" class="st3 st4">esc</text>
	<text transform="matrix(1 0 0 1 123.7502 105.3897)" class="st3 st5">Q</text>
	<text transform="matrix(1 0 0 1 111.1501 159.39)" class="st3 st5">A</text>
	<text transform="matrix(1 0 0 1 26.8118 215.3205)" class="st3 st4">shift</text>
	<text transform="matrix(1 0 0 1 26.8118 269.3206)" class="st3 st4">ctrl</text>
	<text transform="matrix(1 0 0 1 80.4392 269.3206)" class="st3 st4">alt</text>
	<text transform="matrix(1 0 0 1 143.2851 268.3225)" class="st6 st7"></text>
	<text transform="matrix(1 0 0 1 258.4451 269.3206)" class="st3 st4">back</text>
	<text transform="matrix(1 0 0 1 338.9031 269.3206)" class="st3 st4">space</text>
	<text transform="matrix(1 0 0 1 484.8734 269.3206)" class="st3 st4">enter</text>
	<text transform="matrix(1 0 0 1 565.0541 269.3206)" class="st3 st4">delete</text>
	<text transform="matrix(1 0 0 1 85.6801 213.3898)" class="st3 st5">Z</text>
	<text transform="matrix(1 0 0 1 139.1699 213.3898)" class="st3 st5">X</text>
	<text transform="matrix(1 0 0 1 192.93 213.3898)" class="st3 st5">C</text>
	<text transform="matrix(1 0 0 1 246.7501 213.3898)" class="st3 st5">V</text>
	<text transform="matrix(1 0 0 1 301.1702 213.3898)" class="st3 st5">B</text>
	<text transform="matrix(1 0 0 1 26.812 161.3207)" class="st3 st4">caps</text>
	<text transform="matrix(1 0 0 1 167.3998 159.39)" class="st3 st5">S</text>
	<text transform="matrix(1 0 0 1 219.27 159.39)" class="st3 st5">D</text>
	<text transform="matrix(1 0 0 1 275.1603 159.39)" class="st3 st5">F</text>
	<text transform="matrix(1 0 0 1 347.4898 159.39)" class="st3 st5">G</text>
	<text transform="matrix(1 0 0 1 173.9701 105.39)" class="st3 st5">W</text>
	<text transform="matrix(1 0 0 1 234.4498 105.39)" class="st3 st5">E</text>
	<text transform="matrix(1 0 0 1 287.655 105.39)" class="st3 st5">R</text>
	<text transform="matrix(1 0 0 1 356.2801 105.39)" class="st3 st5">T</text>
	<text transform="matrix(1 0 0 1 484.3503 105.39)" class="st3 st5">Y</text>
	<text transform="matrix(1 0 0 1 552.3472 105.39)" class="st3 st5">U</text>
	<text transform="matrix(1 0 0 1 607.1408 105.39)" class="st3 st5">I</text>
	<text transform="matrix(1 0 0 1 657.9734 105.39)" class="st3 st5">O</text>
	<text transform="matrix(1 0 0 1 712.7671 105.39)" class="st3 st5">P</text>
	<text transform="matrix(1 0 0 1 491.85 159.3901)" class="st3 st5">H</text>
	<text transform="matrix(1 0 0 1 569.2648 159.3898)" class="st3 st5">J</text>
	<text transform="matrix(1 0 0 1 620.7753 159.3898)" class="st3 st5">K</text>
	<text transform="matrix(1 0 0 1 676.2153 159.3898)" class="st3 st5">L</text>
	<text transform="matrix(1 0 0 1 538.65 213.3897)" class="st3 st5">N</text>
	<text transform="matrix(1 0 0 1 591.4799 213.3897)" class="st3 st5">M</text>
	<text transform="matrix(1 0 0 1 161.3318 35.3481)"><tspan x="0" y="0" class="st8 st9">!</tspan><tspan x="-0.7" y="19" class="st8 st9">1</tspan></text>
	<text transform="matrix(1 0 0 1 103.7164 37.3481)"><tspan x="0" y="0" class="st8 st9">~</tspan><tspan x="-0.2" y="19" class="st8 st9">`</tspan></text>
	<text transform="matrix(1 0 0 1 209.6599 35.3481)"><tspan x="0" y="0" class="st8 st9">@</tspan><tspan x="3" y="19" class="st8 st9">2</tspan></text>
	<text transform="matrix(1 0 0 1 265.8997 35.3481)"><tspan x="0" y="0" class="st8 st9">#</tspan><tspan x="0.7" y="19" class="st8 st9">3</tspan></text>
	<text transform="matrix(1 0 0 1 320.412 35.3481)"><tspan x="0" y="0" class="st8 st9">$</tspan><tspan x="-0.3" y="19" class="st8 st9">4</tspan></text>
	<text transform="matrix(1 0 0 1 372.8279 35.3481)"><tspan x="0" y="0" class="st8 st9">%</tspan><tspan x="1.8" y="19" class="st8 st9">5</tspan></text>
	<text transform="matrix(1 0 0 1 479.4031 35.3481)"><tspan x="0" y="0" class="st8 st9">^</tspan><tspan x="-1.2" y="19" class="st8 st9">6</tspan></text>
	<text transform="matrix(1 0 0 1 529.9882 35.3481)"><tspan x="0" y="0" class="st8 st9">&amp;</tspan><tspan x="0.8" y="19" class="st8 st9">7</tspan></text>
	<text transform="matrix(1 0 0 1 584.9292 35.3481)"><tspan x="0" y="0" class="st8 st9">*</tspan><tspan x="-1.6" y="19" class="st8 st9">8</tspan></text>
	<text transform="matrix(1 0 0 1 640.3508 35.3481)"><tspan x="0" y="0" class="st8 st9">(</tspan><tspan x="-1.7" y="19" class="st8 st9">9</tspan></text>
	<text transform="matrix(1 0 0 1 694.4842 35.3481)"><tspan x="0" y="0" class="st8 st9">)</tspan><tspan x="-2.2" y="19" class="st8 st9">0</tspan></text>
	<text transform="matrix(1 0 0 1 770.0115 89.3486)"><tspan x="0" y="0" class="st8 st9">{</tspan><tspan x="0.4" y="19" class="st8 st9">[</tspan></text>
	<text transform="matrix(1 0 0 1 803.4401 145.3482)"><tspan x="0" y="0" class="st8 st9">“</tspan><tspan x="1.6" y="19" class="st8 st9">‘</tspan></text>
	<text transform="matrix(1 0 0 1 737.4602 145.348)"><tspan x="0" y="0" class="st8 st9">:</tspan><tspan x="0" y="19" class="st8 st9">;</tspan></text>
	<text transform="matrix(1 0 0 1 653.4998 199.3481)"><tspan x="0" y="0" class="st8 st9">&lt;</tspan><tspan x="3" y="19" class="st8 st9">,</tspan></text>
	<text transform="matrix(1 0 0 1 707.5004 199.3481)"><tspan x="0" y="0" class="st8 st9">&gt;</tspan><tspan x="3" y="19" class="st8 st9">.</tspan></text>
	<text transform="matrix(1 0 0 1 762.2559 197.3481)"><tspan x="0" y="0" class="st8 st9">?</tspan><tspan x="0.7" y="19" class="st8 st4">/</tspan></text>
	<text transform="matrix(1 0 0 1 816.824 196.3481)"><tspan x="0" y="0" class="st8 st4">\</tspan><tspan x="1.4" y="19" class="st8 st4">|</tspan></text>
	<text transform="matrix(1 0 0 1 812.4997 262.2677)" class="st10 st9">→</text>
	<text transform="matrix(1 0 0 1 762.5 262.2677)" class="st10 st9">↓</text>
	<text transform="matrix(1 0 0 1 704.5004 262.2677)" class="st10 st9">←</text>
	<text transform="matrix(1 0 0 1 824.1449 89.3486)"><tspan x="0" y="0" class="st8 st9">}</tspan><tspan x="0.4" y="19" class="st8 st9">]</tspan></text>
	<text transform="matrix(1 0 0 1 736.3095 35.3481)"><tspan x="0" y="0" class="st8 st9">_</tspan><tspan x="1.5" y="19" class="st8 st9">-</tspan></text>
	<text transform="matrix(1 0 0 1 759.8752 35.3481)"><tspan x="0" y="0" class="st8 st9">+</tspan><tspan x="0" y="19" class="st8 st9">=</tspan></text>
</g>
</svg>
