0
SECTION
2
HEADER
9
$INSUNITS
70
4
9
$ACADVER
1
AC1014
9
$HANDSEED
5
FFFF
0
ENDSEC
0
SECTION
2
TABLES
0
TABLE
2
VPORT
5
8
100
AcDbSymbolTable
0
ENDTAB
0
TABLE
2
LTYPE
5
5
100
AcDbSymbolTable
0
LTYPE
5
14
100
AcDbSymbolTableRecord
100
AcDbLinetypeTableRecord
2
BYBLOCK
70
0
0
LTYPE
5
15
100
AcDbSymbolTableRecord
100
AcDbLinetypeTableRecord
2
BYLAYER
70
0
0
ENDTAB
0
TABLE
2
LAYER
5
2
100
AcDbSymbolTable
70
2
0
LAYER
5
50
100
AcDbSymbolTableRecord
100
AcDbLayerTableRecord
2
0
70
0
6
CONTINUOUS
0
ENDTAB
0
TABLE
2
STYLE
5
3
100
AcDbSymbolTable
70
1
0
STYLE
5
11
100
AcDbSymbolTableRecord
100
AcDbTextStyleTableRecord
2
STANDARD
70
0
0
ENDTAB
0
TABLE
2
VIEW
5
6
100
AcDbSymbolTable
70
0
0
ENDTAB
0
TABLE
2
UCS
5
7
100
AcDbSymbolTable
70
0
0
ENDTAB
0
TABLE
2
APPID
5
9
100
AcDbSymbolTable
70
2
0
APPID
5
12
100
AcDbSymbolTableRecord
100
AcDbRegAppTableRecord
2
ACAD
70
0
0
ENDTAB
0
TABLE
2
DIMSTYLE
5
A
100
AcDbSymbolTable
70
1
0
ENDTAB
0
TABLE
2
BLOCK_RECORD
5
1
100
AcDbSymbolTable
70
1
0
BLOCK_RECORD
5
1F
100
AcDbSymbolTableRecord
100
AcDbBlockTableRecord
2
*MODEL_SPACE
0
BLOCK_RECORD
5
1B
100
AcDbSymbolTableRecord
100
AcDbBlockTableRecord
2
*PAPER_SPACE
0
ENDTAB
0
ENDSEC
0
SECTION
2
BLOCKS
0
BLOCK
5
20
100
AcDbEntity
100
AcDbBlockBegin
2
*MODEL_SPACE
0
ENDBLK
5
21
100
AcDbEntity
100
AcDbBlockEnd
0
BLOCK
5
1C
100
AcDbEntity
100
AcDbBlockBegin
2
*PAPER_SPACE
0
ENDBLK
5
1D
100
AcDbEntity
100
AcDbBlockEnd
0
ENDSEC
0
SECTION
2
ENTITIES
0
LWPOLYLINE
5
100
100
AcDbEntity
8
0
100
AcDbPolyline
90
20
70
1
43
0.0
10
40.619700000000009
20
3.6173500000000001
10
39.820300000000003
20
3.6173500000000001
10
39.820300000000003
20
6.7179500000000001
10
40.619700000000009
20
6.7179500000000001
10
40.619700000000009
20
12.5181
10
39.820300000000003
20
12.5181
10
39.820300000000003
20
15.6173
10
40.619700000000009
20
15.6173
10
40.619700000000009
20
16.617799999999999
10
54.619
20
16.617799999999999
10
54.619
20
15.6173
10
55.419800000000009
20
15.6173
10
55.419800000000009
20
12.5181
10
54.619
20
12.5181
10
54.619
20
6.7179500000000001
10
55.419800000000009
20
6.7179500000000001
10
55.419800000000009
20
3.6173500000000001
10
54.619
20
3.6173500000000001
10
54.619
20
2.6182699999999999
10
40.619700000000009
20
2.6182699999999999
0
LWPOLYLINE
5
101
100
AcDbEntity
8
0
100
AcDbPolyline
90
20
70
1
43
0.0
10
133.845
20
31.518100000000004
10
133.04400000000004
20
31.518100000000004
10
133.04400000000004
20
25.717900000000004
10
133.845
20
25.717900000000004
10
133.845
20
22.617300000000004
10
133.04400000000004
20
22.617300000000004
10
133.04400000000004
20
21.618300000000001
10
119.045
20
21.618300000000001
10
119.045
20
22.617300000000004
10
118.24400000000003
20
22.617300000000004
10
118.24400000000003
20
25.717900000000004
10
119.045
20
25.717900000000004
10
119.045
20
31.518100000000004
10
118.24400000000003
20
31.518100000000004
10
118.24400000000003
20
34.6173
10
119.045
20
34.6173
10
119.045
20
35.617600000000003
10
133.04400000000004
20
35.617600000000003
10
133.04400000000004
20
34.6173
10
133.845
20
34.6173
0
LWPOLYLINE
5
102
100
AcDbEntity
8
0
100
AcDbPolyline
90
20
70
1
43
0.0
10
116.84300000000005
20
2.6182699999999999
10
116.84300000000005
20
3.6173500000000001
10
116.04400000000001
20
3.6173500000000001
10
116.04400000000001
20
6.7179500000000001
10
116.84300000000005
20
6.7179500000000001
10
116.84300000000005
20
12.5181
10
116.04400000000001
20
12.5181
10
116.04400000000001
20
15.6173
10
116.84300000000005
20
15.6173
10
116.84300000000005
20
16.617799999999999
10
130.84400000000002
20
16.617799999999999
10
130.84400000000002
20
15.6173
10
131.64500000000004
20
15.6173
10
131.64500000000004
20
12.5181
10
130.84400000000002
20
12.5181
10
130.84400000000002
20
6.7179500000000001
10
131.64500000000004
20
6.7179500000000001
10
131.64500000000004
20
3.6173500000000001
10
130.84400000000002
20
3.6173500000000001
10
130.84400000000002
20
2.6182699999999999
0
LWPOLYLINE
5
103
100
AcDbEntity
8
0
100
AcDbPolyline
90
20
70
1
43
0.0
10
2.61965
20
3.6173500000000001
10
1.8203900000000004
20
3.6173500000000001
10
1.8203900000000004
20
6.7179500000000001
10
2.61965
20
6.7179500000000001
10
2.61965
20
12.5181
10
1.8203900000000004
20
12.5181
10
1.8203900000000004
20
15.6173
10
2.61965
20
15.6173
10
2.61965
20
16.617799999999999
10
16.619199999999999
20
16.617799999999999
10
16.619199999999999
20
15.6173
10
17.419799999999999
20
15.6173
10
17.419799999999999
20
12.5181
10
16.619199999999999
20
12.5181
10
16.619199999999999
20
6.7179500000000001
10
17.419799999999999
20
6.7179500000000001
10
17.419799999999999
20
3.6173500000000001
10
16.619199999999999
20
3.6173500000000001
10
16.619199999999999
20
2.6182699999999999
10
2.61965
20
2.6182699999999999
0
LWPOLYLINE
5
104
100
AcDbEntity
8
0
100
AcDbPolyline
90
20
70
1
43
0.0
10
16.619199999999999
20
25.717900000000004
10
17.419799999999999
20
25.717900000000004
10
17.419799999999999
20
22.617300000000004
10
16.619199999999999
20
22.617300000000004
10
16.619199999999999
20
21.618300000000001
10
2.61965
20
21.618300000000001
10
2.61965
20
22.617300000000004
10
1.8203900000000004
20
22.617300000000004
10
1.8203900000000004
20
25.717900000000004
10
2.61965
20
25.717900000000004
10
2.61965
20
31.518100000000004
10
1.8203900000000004
20
31.518100000000004
10
1.8203900000000004
20
34.6173
10
2.61965
20
34.6173
10
2.61965
20
35.617600000000003
10
16.619199999999999
20
35.617600000000003
10
16.619199999999999
20
34.6173
10
17.419799999999999
20
34.6173
10
17.419799999999999
20
31.518100000000004
10
16.619199999999999
20
31.518100000000004
0
LWPOLYLINE
5
105
100
AcDbEntity
8
0
100
AcDbPolyline
90
20
70
1
43
0.0
10
121.40099999999998
20
92.61760000000001
10
135.40100000000001
20
92.61760000000001
10
135.40100000000001
20
91.617499999999993
10
136.20099999999999
20
91.617499999999993
10
136.20099999999999
20
88.517999999999986
10
135.40100000000001
20
88.517999999999986
10
135.40100000000001
20
82.717900000000014
10
136.20099999999999
20
82.717900000000014
10
136.20099999999999
20
79.617400000000018
10
135.40100000000001
20
79.617400000000018
10
135.40100000000001
20
78.618300000000005
10
121.40099999999998
20
78.618300000000005
10
121.40099999999998
20
79.617400000000018
10
120.60000000000001
20
79.617400000000018
10
120.60000000000001
20
82.717900000000014
10
121.40099999999998
20
82.717900000000014
10
121.40099999999998
20
88.517999999999986
10
120.60000000000001
20
88.517999999999986
10
120.60000000000001
20
91.617499999999993
10
121.40099999999998
20
91.617499999999993
0
LWPOLYLINE
5
106
100
AcDbEntity
8
0
100
AcDbPolyline
90
20
70
1
43
0.0
10
21.619700000000002
20
15.6173
10
21.619700000000002
20
16.617799999999999
10
35.619000000000007
20
16.617799999999999
10
35.619000000000007
20
15.6173
10
36.419800000000002
20
15.6173
10
36.419800000000002
20
12.5181
10
35.619000000000007
20
12.5181
10
35.619000000000007
20
6.7179500000000001
10
36.419800000000002
20
6.7179500000000001
10
36.419800000000002
20
3.6173500000000001
10
35.619000000000007
20
3.6173500000000001
10
35.619000000000007
20
2.6182699999999999
10
21.619700000000002
20
2.6182699999999999
10
21.619700000000002
20
3.6173500000000001
10
20.820399999999999
20
3.6173500000000001
10
20.820399999999999
20
6.7179500000000001
10
21.619700000000002
20
6.7179500000000001
10
21.619700000000002
20
12.5181
10
20.820399999999999
20
12.5181
10
20.820399999999999
20
15.6173
0
LWPOLYLINE
5
107
100
AcDbEntity
8
0
100
AcDbPolyline
90
20
70
1
43
0.0
10
117.20100000000002
20
82.717900000000014
10
117.20100000000002
20
79.617400000000018
10
116.40100000000001
20
79.617400000000018
10
116.40100000000001
20
78.618300000000005
10
102.40100000000001
20
78.618300000000005
10
102.40100000000001
20
79.617400000000018
10
101.59999999999999
20
79.617400000000018
10
101.59999999999999
20
82.717900000000014
10
102.40100000000001
20
82.717900000000014
10
102.40100000000001
20
88.517999999999986
10
101.59999999999999
20
88.517999999999986
10
101.59999999999999
20
91.617499999999993
10
102.40100000000001
20
91.617499999999993
10
102.40100000000001
20
92.61760000000001
10
116.40100000000001
20
92.61760000000001
10
116.40100000000001
20
91.617499999999993
10
117.20100000000002
20
91.617499999999993
10
117.20100000000002
20
88.517999999999986
10
116.40100000000001
20
88.517999999999986
10
116.40100000000001
20
82.717900000000014
0
LWPOLYLINE
5
108
100
AcDbEntity
8
0
100
AcDbPolyline
90
20
70
1
43
0.0
10
35.863199999999999
20
69.518000000000015
10
35.0625
20
69.518000000000015
10
35.0625
20
72.617500000000007
10
35.863199999999999
20
72.617500000000007
10
35.863199999999999
20
73.61760000000001
10
49.862499999999997
20
73.61760000000001
10
49.862499999999997
20
72.617500000000007
10
50.6633
20
72.617500000000007
10
50.6633
20
69.518000000000015
10
49.862499999999997
20
69.518000000000015
10
49.862499999999997
20
63.717900000000007
10
50.6633
20
63.717900000000007
10
50.6633
20
60.617400000000011
10
49.862499999999997
20
60.617400000000011
10
49.862499999999997
20
59.618300000000005
10
35.863199999999999
20
59.618300000000005
10
35.863199999999999
20
60.617400000000011
10
35.0625
20
60.617400000000011
10
35.0625
20
63.717900000000007
10
35.863199999999999
20
63.717900000000007
0
LWPOLYLINE
5
109
100
AcDbEntity
8
0
100
AcDbPolyline
90
20
70
1
43
0.0
10
69.663300000000007
20
72.617500000000007
10
69.663300000000007
20
69.518000000000015
10
68.862500000000011
20
69.518000000000015
10
68.862500000000011
20
63.717900000000007
10
69.663300000000007
20
63.717900000000007
10
69.663300000000007
20
60.617400000000011
10
68.862500000000011
20
60.617400000000011
10
68.862500000000011
20
59.618300000000005
10
54.863199999999999
20
59.618300000000005
10
54.863199999999999
20
60.617400000000011
10
54.062400000000004
20
60.617400000000011
10
54.062400000000004
20
63.717900000000007
10
54.863199999999999
20
63.717900000000007
10
54.863199999999999
20
69.518000000000015
10
54.062400000000004
20
69.518000000000015
10
54.062400000000004
20
72.617500000000007
10
54.863199999999999
20
72.617500000000007
10
54.863199999999999
20
73.61760000000001
10
68.862500000000011
20
73.61760000000001
10
68.862500000000011
20
72.617500000000007
0
LWPOLYLINE
5
110
100
AcDbEntity
8
0
100
AcDbPolyline
90
20
70
1
43
0.0
10
113.48200000000003
20
41.617400000000004
10
113.48200000000003
20
44.7179
10
114.28200000000001
20
44.7179
10
114.28200000000001
20
50.518000000000008
10
113.48200000000003
20
50.518000000000008
10
113.48200000000003
20
53.617500000000007
10
114.28200000000001
20
53.617500000000007
10
114.28200000000001
20
54.617599999999996
10
128.28199999999998
20
54.617599999999996
10
128.28199999999998
20
53.617500000000007
10
129.08100000000002
20
53.617500000000007
10
129.08100000000002
20
50.518000000000008
10
128.28199999999998
20
50.518000000000008
10
128.28199999999998
20
44.7179
10
129.08100000000002
20
44.7179
10
129.08100000000002
20
41.617400000000004
10
128.28199999999998
20
41.617400000000004
10
128.28199999999998
20
40.618300000000005
10
114.28200000000001
20
40.618300000000005
10
114.28200000000001
20
41.617400000000004
0
LWPOLYLINE
5
111
100
AcDbEntity
8
0
100
AcDbPolyline
90
20
70
1
43
0.0
10
83.982800000000012
20
41.617400000000004
10
83.181999999999988
20
41.617400000000004
10
83.181999999999988
20
40.618300000000005
10
69.182700000000011
20
40.618300000000005
10
69.182700000000011
20
41.617400000000004
10
68.383300000000006
20
41.617400000000004
10
68.383300000000006
20
44.7179
10
69.182700000000011
20
44.7179
10
69.182700000000011
20
50.518000000000008
10
68.383300000000006
20
50.518000000000008
10
68.383300000000006
20
53.617500000000007
10
69.182700000000011
20
53.617500000000007
10
69.182700000000011
20
54.617599999999996
10
83.181999999999988
20
54.617599999999996
10
83.181999999999988
20
53.617500000000007
10
83.982800000000012
20
53.617500000000007
10
83.982800000000012
20
50.518000000000008
10
83.181999999999988
20
50.518000000000008
10
83.181999999999988
20
44.7179
10
83.982800000000012
20
44.7179
0
LWPOLYLINE
5
112
100
AcDbEntity
8
0
100
AcDbPolyline
90
20
70
1
43
0.0
10
97.400500000000022
20
79.617400000000018
10
97.400500000000022
20
78.618300000000005
10
83.401200000000003
20
78.618300000000005
10
83.401200000000003
20
79.617400000000018
10
82.600400000000022
20
79.617400000000018
10
82.600400000000022
20
82.717900000000014
10
83.401200000000003
20
82.717900000000014
10
83.401200000000003
20
88.517999999999986
10
82.600400000000022
20
88.517999999999986
10
82.600400000000022
20
91.617499999999993
10
83.401200000000003
20
91.617499999999993
10
83.401200000000003
20
92.61760000000001
10
97.400500000000022
20
92.61760000000001
10
97.400500000000022
20
91.617499999999993
10
98.201300000000003
20
91.617499999999993
10
98.201300000000003
20
88.517999999999986
10
97.400500000000022
20
88.517999999999986
10
97.400500000000022
20
82.717900000000014
10
98.201300000000003
20
82.717900000000014
10
98.201300000000003
20
79.617400000000018
0
LWPOLYLINE
5
113
100
AcDbEntity
8
0
100
AcDbPolyline
90
20
70
1
43
0.0
10
22.182300000000001
20
50.518000000000008
10
21.381700000000002
20
50.518000000000008
10
21.381700000000002
20
44.7179
10
22.182300000000001
20
44.7179
10
22.182300000000001
20
41.617400000000004
10
21.381700000000002
20
41.617400000000004
10
21.381700000000002
20
40.618300000000005
10
7.3821600000000007
20
40.618300000000005
10
7.3821600000000007
20
41.617400000000004
10
6.5815299999999999
20
41.617400000000004
10
6.5815299999999999
20
44.7179
10
7.3821600000000007
20
44.7179
10
7.3821600000000007
20
50.518000000000008
10
6.5815299999999999
20
50.518000000000008
10
6.5815299999999999
20
53.617500000000007
10
7.3821600000000007
20
53.617500000000007
10
7.3821599999999998
20
54.617599999999996
10
21.381700000000002
20
54.617599999999996
10
21.381700000000002
20
53.617500000000007
10
22.182300000000001
20
53.617500000000007
0
LWPOLYLINE
5
114
100
AcDbEntity
8
0
100
AcDbPolyline
90
20
70
1
43
0.0
10
107.66300000000001
20
60.617400000000011
10
106.86300000000003
20
60.617400000000011
10
106.86300000000003
20
59.618300000000005
10
92.863200000000006
20
59.618300000000005
10
92.863200000000006
20
60.617400000000011
10
92.062399999999968
20
60.617400000000011
10
92.062399999999968
20
63.717900000000007
10
92.863200000000006
20
63.717900000000007
10
92.863200000000006
20
69.518000000000015
10
92.062399999999968
20
69.518000000000015
10
92.062399999999968
20
72.617500000000007
10
92.863200000000006
20
72.617500000000007
10
92.863200000000006
20
73.61760000000001
10
106.86300000000003
20
73.61760000000001
10
106.86300000000003
20
72.617500000000007
10
107.66300000000001
20
72.617500000000007
10
107.66300000000001
20
69.518000000000015
10
106.86300000000003
20
69.518000000000015
10
106.86300000000003
20
63.717900000000007
10
107.66300000000001
20
63.717900000000007
0
LWPOLYLINE
5
115
100
AcDbEntity
8
0
100
AcDbPolyline
90
20
70
1
43
0.0
10
96.820300000000003
20
22.617300000000004
10
96.820300000000003
20
25.717900000000004
10
97.618300000000033
20
25.717900000000004
10
97.618300000000033
20
31.518100000000004
10
96.820300000000003
20
31.518100000000004
10
96.820300000000003
20
34.6173
10
97.618300000000033
20
34.6173
10
97.618300000000033
20
35.617600000000003
10
111.61900000000003
20
35.617600000000003
10
111.61900000000003
20
34.6173
10
112.41800000000001
20
34.6173
10
112.41800000000001
20
31.518100000000004
10
111.61900000000003
20
31.518100000000004
10
111.61900000000003
20
25.717900000000004
10
112.41800000000001
20
25.717900000000004
10
112.41800000000001
20
22.617300000000004
10
111.61900000000003
20
22.617300000000004
10
111.61900000000003
20
21.618300000000001
10
97.618300000000033
20
21.618300000000001
10
97.618300000000033
20
22.617300000000004
0
LWPOLYLINE
5
116
100
AcDbEntity
8
0
100
AcDbPolyline
90
20
70
1
43
0.0
10
76.845100000000002
20
3.6173500000000001
10
76.044300000000007
20
3.6173500000000001
10
76.044300000000007
20
2.6182699999999999
10
62.045000000000002
20
2.6182699999999999
10
62.045000000000002
20
3.6173500000000001
10
61.244200000000006
20
3.6173500000000001
10
61.244200000000006
20
6.7179500000000001
10
62.045000000000002
20
6.7179500000000001
10
62.045000000000002
20
12.5181
10
61.244200000000006
20
12.5181
10
61.244200000000006
20
15.6173
10
62.045000000000002
20
15.6173
10
62.045000000000002
20
16.617799999999999
10
76.044300000000007
20
16.617799999999999
10
76.044300000000007
20
15.6173
10
76.845100000000002
20
15.6173
10
76.845100000000002
20
12.5181
10
76.044300000000007
20
12.5181
10
76.044300000000007
20
6.7179500000000001
10
76.845100000000002
20
6.7179500000000001
0
LWPOLYLINE
5
117
100
AcDbEntity
8
0
100
AcDbPolyline
90
20
70
1
43
0.0
10
26.401200000000003
20
88.517999999999986
10
25.600500000000004
20
88.517999999999986
10
25.600500000000004
20
91.617499999999993
10
26.401200000000003
20
91.617499999999993
10
26.401200000000003
20
92.61760000000001
10
40.400500000000001
20
92.61760000000001
10
40.400500000000001
20
91.617499999999993
10
41.201300000000003
20
91.617499999999993
10
41.201300000000003
20
88.517999999999986
10
40.400500000000001
20
88.517999999999986
10
40.400500000000001
20
82.717900000000014
10
41.201300000000003
20
82.717900000000014
10
41.201300000000003
20
79.617400000000018
10
40.400500000000001
20
79.617400000000018
10
40.400500000000001
20
78.618300000000005
10
26.401200000000003
20
78.618300000000005
10
26.401200000000003
20
79.617400000000018
10
25.600500000000004
20
79.617400000000018
10
25.600500000000004
20
82.717900000000014
10
26.401200000000003
20
82.717900000000014
0
LWPOLYLINE
5
118
100
AcDbEntity
8
0
100
AcDbPolyline
90
20
70
1
43
0.0
10
92.619000000000028
20
35.617600000000003
10
92.619000000000028
20
34.6173
10
93.418399999999991
20
34.6173
10
93.418399999999991
20
31.518100000000004
10
92.619000000000028
20
31.518100000000004
10
92.619000000000028
20
25.717900000000004
10
93.418399999999991
20
25.717900000000004
10
93.418399999999991
20
22.617300000000004
10
92.619000000000028
20
22.617300000000004
10
92.619000000000028
20
21.618300000000001
10
78.619699999999995
20
21.618300000000001
10
78.619699999999995
20
22.617300000000004
10
77.820300000000003
20
22.617300000000004
10
77.820300000000003
20
25.717900000000004
10
78.619699999999995
20
25.717900000000004
10
78.619699999999995
20
31.518100000000004
10
77.820300000000003
20
31.518100000000004
10
77.820300000000003
20
34.6173
10
78.619699999999995
20
34.6173
10
78.619699999999995
20
35.617600000000003
0
LWPOLYLINE
5
119
100
AcDbEntity
8
0
100
AcDbPolyline
90
20
70
1
43
0.0
10
88.244700000000023
20
15.6173
10
88.244700000000023
20
16.617799999999999
10
102.24400000000003
20
16.617799999999999
10
102.24400000000003
20
15.6173
10
103.04500000000002
20
15.6173
10
103.04500000000002
20
12.5181
10
102.24400000000003
20
12.5181
10
102.24400000000003
20
6.7179500000000001
10
103.04500000000002
20
6.7179500000000001
10
103.04500000000002
20
3.6173500000000001
10
102.24400000000003
20
3.6173500000000001
10
102.24400000000003
20
2.6182699999999999
10
88.244700000000023
20
2.6182699999999999
10
88.244700000000023
20
3.6173500000000001
10
87.445300000000003
20
3.6173500000000001
10
87.445300000000003
20
6.7179500000000001
10
88.244700000000023
20
6.7179500000000001
10
88.244700000000023
20
12.5181
10
87.445300000000003
20
12.5181
10
87.445300000000003
20
15.6173
0
LWPOLYLINE
5
120
100
AcDbEntity
8
0
100
AcDbPolyline
90
20
70
1
43
0.0
10
55.419800000000009
20
31.518100000000004
10
54.619
20
31.518100000000004
10
54.619
20
25.717900000000004
10
55.419800000000009
20
25.717900000000004
10
55.419800000000009
20
22.617300000000004
10
54.619
20
22.617300000000004
10
54.619
20
21.618300000000001
10
40.619700000000009
20
21.618300000000001
10
40.619700000000009
20
22.617300000000004
10
39.820300000000003
20
22.617300000000004
10
39.820300000000003
20
25.717900000000004
10
40.619700000000009
20
25.717900000000004
10
40.619700000000009
20
31.518100000000004
10
39.820300000000003
20
31.518100000000004
10
39.820300000000003
20
34.6173
10
40.619700000000009
20
34.6173
10
40.619700000000009
20
35.617600000000003
10
54.619
20
35.617600000000003
10
54.619
20
34.6173
10
55.419800000000009
20
34.6173
0
LWPOLYLINE
5
121
100
AcDbEntity
8
0
100
AcDbPolyline
90
20
70
1
43
0.0
10
87.862500000000011
20
63.717900000000007
10
88.663299999999992
20
63.717900000000007
10
88.663299999999992
20
60.617400000000011
10
87.862500000000011
20
60.617400000000011
10
87.862500000000011
20
59.618300000000005
10
73.863199999999992
20
59.618300000000005
10
73.863199999999992
20
60.617400000000011
10
73.062399999999997
20
60.617400000000011
10
73.062399999999997
20
63.717900000000007
10
73.863199999999992
20
63.717900000000007
10
73.863199999999992
20
69.518000000000015
10
73.062399999999997
20
69.518000000000015
10
73.062399999999997
20
72.617500000000007
10
73.863199999999992
20
72.617500000000007
10
73.863199999999992
20
73.61760000000001
10
87.862500000000011
20
73.61760000000001
10
87.862500000000011
20
72.617500000000007
10
88.663299999999992
20
72.617500000000007
10
88.663299999999992
20
69.518000000000015
10
87.862500000000011
20
69.518000000000015
0
LWPOLYLINE
5
122
100
AcDbEntity
8
0
100
AcDbPolyline
90
20
70
1
43
0.0
10
88.182700000000011
20
54.617599999999996
10
102.18199999999999
20
54.617599999999996
10
102.18199999999999
20
53.617500000000007
10
102.983
20
53.617500000000007
10
102.983
20
50.518000000000008
10
102.18199999999999
20
50.518000000000008
10
102.18199999999999
20
44.7179
10
102.983
20
44.7179
10
102.983
20
41.617400000000004
10
102.18199999999999
20
41.617400000000004
10
102.18199999999999
20
40.618300000000005
10
88.182700000000011
20
40.618300000000005
10
88.182700000000011
20
41.617400000000004
10
87.38330000000002
20
41.617400000000004
10
87.38330000000002
20
44.7179
10
88.182700000000011
20
44.7179
10
88.182700000000011
20
50.518000000000008
10
87.38330000000002
20
50.518000000000008
10
87.38330000000002
20
53.617500000000007
10
88.182700000000011
20
53.617500000000007
0
LWPOLYLINE
5
123
100
AcDbEntity
8
0
100
AcDbPolyline
90
20
70
1
43
0.0
10
19.000399999999999
20
78.618300000000005
10
5.0009100000000011
20
78.618300000000005
10
5.0009100000000011
20
79.617400000000018
10
4.2002800000000011
20
79.617400000000018
10
4.2002800000000011
20
82.717900000000014
10
5.0009100000000011
20
82.717900000000014
10
5.0009100000000011
20
88.517999999999986
10
4.2002800000000011
20
88.517999999999986
10
4.2002800000000011
20
91.617499999999993
10
5.0009100000000011
20
91.617499999999993
10
5.0009100000000011
20
92.61760000000001
10
19.000399999999999
20
92.61760000000001
10
19.000399999999999
20
91.617499999999993
10
19.800999999999998
20
91.617499999999993
10
19.800999999999998
20
88.517999999999986
10
19.000399999999999
20
88.517999999999986
10
19.000399999999999
20
82.717900000000014
10
19.800999999999998
20
82.717900000000014
10
19.800999999999998
20
79.617400000000018
10
19.000399999999999
20
79.617400000000018
0
LWPOLYLINE
5
124
100
AcDbEntity
8
0
100
AcDbPolyline
90
20
70
1
43
0.0
10
9.7634100000000004
20
60.617400000000011
10
8.9627800000000022
20
60.617400000000011
10
8.9627800000000022
20
63.717900000000007
10
9.7634100000000004
20
63.717900000000007
10
9.7634100000000004
20
69.518000000000015
10
8.9627800000000022
20
69.518000000000015
10
8.9627800000000022
20
72.617500000000007
10
9.7634100000000004
20
72.617500000000007
10
9.7634100000000004
20
73.61760000000001
10
23.762900000000002
20
73.61760000000001
10
23.762900000000002
20
72.617500000000007
10
24.562200000000001
20
72.617500000000007
10
24.562200000000001
20
69.518000000000015
10
23.762900000000002
20
69.518000000000015
10
23.762900000000002
20
63.717900000000007
10
24.562200000000001
20
63.717900000000007
10
24.562200000000001
20
60.617400000000011
10
23.762900000000002
20
60.617400000000011
10
23.762900000000002
20
59.618300000000005
10
9.7634100000000004
20
59.618300000000005
0
LWPOLYLINE
5
125
100
AcDbEntity
8
0
100
AcDbPolyline
90
20
70
1
43
0.0
10
36.419800000000002
20
34.6173
10
36.419800000000002
20
31.518100000000004
10
35.619000000000007
20
31.518100000000004
10
35.619000000000007
20
25.717900000000004
10
36.419800000000002
20
25.717900000000004
10
36.419800000000002
20
22.617300000000004
10
35.619000000000007
20
22.617300000000004
10
35.619000000000007
20
21.618300000000001
10
21.619700000000002
20
21.618300000000001
10
21.619700000000002
20
22.617300000000004
10
20.820399999999999
20
22.617300000000004
10
20.820399999999999
20
25.717900000000004
10
21.619700000000002
20
25.717900000000004
10
21.619700000000002
20
31.518100000000004
10
20.820399999999999
20
31.518100000000004
10
20.820399999999999
20
34.6173
10
21.619700000000002
20
34.6173
10
21.619700000000002
20
35.617600000000003
10
35.619000000000007
20
35.617600000000003
10
35.619000000000007
20
34.6173
0
LWPOLYLINE
5
126
100
AcDbEntity
8
0
100
AcDbPolyline
90
20
70
1
43
0.0
10
131.464
20
60.617400000000011
10
130.66299999999998
20
60.617400000000011
10
130.66299999999998
20
59.618300000000005
10
116.66200000000001
20
59.618300000000005
10
116.66200000000001
20
60.617400000000011
10
115.86299999999997
20
60.617400000000011
10
115.86299999999997
20
63.717900000000007
10
116.66200000000001
20
63.717900000000007
10
116.66200000000001
20
69.518000000000015
10
115.86299999999997
20
69.518000000000015
10
115.86299999999997
20
72.617500000000007
10
116.66200000000001
20
72.617500000000007
10
116.66200000000001
20
73.61760000000001
10
130.66299999999998
20
73.61760000000001
10
130.66299999999998
20
72.617500000000007
10
131.464
20
72.617500000000007
10
131.464
20
69.518000000000015
10
130.66299999999998
20
69.518000000000015
10
130.66299999999998
20
63.717900000000007
10
131.464
20
63.717900000000007
0
LWPOLYLINE
5
127
100
AcDbEntity
8
0
100
AcDbPolyline
90
20
70
1
43
0.0
10
45.982799999999997
20
50.518000000000008
10
45.182000000000002
20
50.518000000000008
10
45.182000000000002
20
44.7179
10
45.982799999999997
20
44.7179
10
45.982799999999997
20
41.617400000000004
10
45.182000000000002
20
41.617400000000004
10
45.182000000000002
20
40.618300000000005
10
31.182700000000004
20
40.618300000000005
10
31.182700000000004
20
41.617400000000004
10
30.383400000000002
20
41.617400000000004
10
30.383400000000002
20
44.7179
10
31.182700000000004
20
44.7179
10
31.182700000000004
20
50.518000000000008
10
30.383400000000002
20
50.518000000000008
10
30.383400000000002
20
53.617500000000007
10
31.182700000000004
20
53.617500000000007
10
31.182700000000004
20
54.617599999999996
10
45.182000000000002
20
54.617599999999996
10
45.182000000000002
20
53.617500000000007
10
45.982799999999997
20
53.617500000000007
0
LWPOLYLINE
5
128
100
AcDbEntity
8
0
100
AcDbPolyline
90
20
70
1
43
0.0
10
49.383300000000006
20
50.518000000000008
10
49.383300000000006
20
53.617500000000007
10
50.182700000000011
20
53.617500000000007
10
50.182700000000011
20
54.617599999999996
10
64.182000000000002
20
54.617599999999996
10
64.182000000000002
20
53.617500000000007
10
64.982799999999997
20
53.617500000000007
10
64.982799999999997
20
50.518000000000008
10
64.182000000000002
20
50.518000000000008
10
64.182000000000002
20
44.7179
10
64.982799999999997
20
44.7179
10
64.982799999999997
20
41.617400000000004
10
64.182000000000002
20
41.617400000000004
10
64.182000000000002
20
40.618300000000005
10
50.182700000000011
20
40.618300000000005
10
50.182700000000011
20
41.617400000000004
10
49.383300000000006
20
41.617400000000004
10
49.383300000000006
20
44.7179
10
50.182700000000011
20
44.7179
10
50.182700000000011
20
50.518000000000008
0
LWPOLYLINE
5
129
100
AcDbEntity
8
0
100
AcDbPolyline
90
20
70
1
43
0.0
10
63.600400000000008
20
88.517999999999986
10
63.600400000000008
20
91.617499999999993
10
64.401200000000017
20
91.617499999999993
10
64.401200000000017
20
92.61760000000001
10
78.400499999999994
20
92.61760000000001
10
78.400499999999994
20
91.617499999999993
10
79.201300000000018
20
91.617499999999993
10
79.201300000000018
20
88.517999999999986
10
78.400499999999994
20
88.517999999999986
10
78.400499999999994
20
82.717900000000014
10
79.201300000000018
20
82.717900000000014
10
79.201300000000018
20
79.617400000000018
10
78.400499999999994
20
79.617400000000018
10
78.400499999999994
20
78.618300000000005
10
64.401200000000017
20
78.618300000000005
10
64.401200000000017
20
79.617400000000018
10
63.600400000000008
20
79.617400000000018
10
63.600400000000008
20
82.717900000000014
10
64.401200000000017
20
82.717900000000014
10
64.401200000000017
20
88.517999999999986
0
LWPOLYLINE
5
130
100
AcDbEntity
8
0
100
AcDbPolyline
90
20
70
1
43
0.0
10
73.619
20
22.617300000000004
10
73.619
20
21.618300000000001
10
59.619700000000009
20
21.618300000000001
10
59.619700000000009
20
22.617300000000004
10
58.82030000000001
20
22.617300000000004
10
58.82030000000001
20
25.717900000000004
10
59.619700000000009
20
25.717900000000004
10
59.619700000000009
20
31.518100000000004
10
58.82030000000001
20
31.518100000000004
10
58.82030000000001
20
34.6173
10
59.619700000000009
20
34.6173
10
59.619700000000009
20
35.617600000000003
10
73.619
20
35.617600000000003
10
73.619
20
34.6173
10
74.419800000000009
20
34.6173
10
74.419800000000009
20
31.518100000000004
10
73.619
20
31.518100000000004
10
73.619
20
25.717900000000004
10
74.419800000000009
20
25.717900000000004
10
74.419800000000009
20
22.617300000000004
0
LWPOLYLINE
5
131
100
AcDbEntity
8
0
100
AcDbPolyline
90
20
70
1
43
0.0
10
59.400500000000001
20
88.517999999999986
10
59.400500000000001
20
82.717900000000014
10
60.20130000000001
20
82.717900000000014
10
60.20130000000001
20
79.617400000000018
10
59.400500000000001
20
79.617400000000018
10
59.400500000000001
20
78.618300000000005
10
45.401200000000003
20
78.618300000000005
10
45.401200000000003
20
79.617400000000018
10
44.6004
20
79.617400000000018
10
44.6004
20
82.717900000000014
10
45.401200000000003
20
82.717900000000014
10
45.401200000000003
20
88.517999999999986
10
44.6004
20
88.517999999999986
10
44.6004
20
91.617499999999993
10
45.401200000000003
20
91.617499999999993
10
45.401200000000003
20
92.61760000000001
10
59.400500000000001
20
92.61760000000001
10
59.400500000000001
20
91.617499999999993
10
60.20130000000001
20
91.617499999999993
10
60.20130000000001
20
88.517999999999986
0
LWPOLYLINE
5
132
100
AcDbEntity
8
0
100
AcDbPolyline
90
4
70
1
43
0.0
10
136.78939
20
0.53832899999999739
10
136.78939000000003
20
94.738328999999979
10
1.1993899999999931
20
94.738328999999993
10
1.1993900000000046
20
0.53832899999999984
0
ENDSEC
0
SECTION
2
OBJECTS
0
DICTIONARY
5
C
100
AcDbDictionary
3
ACAD_GROUP
350
D
3
ACAD_MLINESTYLE
350
17
0
DICTIONARY
5
D
100
AcDbDictionary
0
DICTIONARY
5
1A
330
C
100
AcDbDictionary
0
DICTIONARY
5
17
100
AcDbDictionary
0
ENDSEC
0
EOF
