0
SECTION
2
HEADER
9
$INSUNITS
70
4
9
$ACADVER
1
AC1014
9
$HANDSEED
5
FFFF
0
ENDSEC
0
SECTION
2
TABLES
0
TABLE
2
VPORT
5
8
100
AcDbSymbolTable
0
ENDTAB
0
TABLE
2
LTYPE
5
5
100
AcDbSymbolTable
0
LTYPE
5
14
100
AcDbSymbolTableRecord
100
AcDbLinetypeTableRecord
2
BYBLOCK
70
0
0
LTYPE
5
15
100
AcDbSymbolTableRecord
100
AcDbLinetypeTableRecord
2
BYLAYER
70
0
0
ENDTAB
0
TABLE
2
LAYER
5
2
100
AcDbSymbolTable
70
2
0
LAYER
5
50
100
AcDbSymbolTableRecord
100
AcDbLayerTableRecord
2
0
70
0
6
CONTINUOUS
0
ENDTAB
0
TABLE
2
STYLE
5
3
100
AcDbSymbolTable
70
1
0
STYLE
5
11
100
AcDbSymbolTableRecord
100
AcDbTextStyleTableRecord
2
STANDARD
70
0
0
ENDTAB
0
TABLE
2
VIEW
5
6
100
AcDbSymbolTable
70
0
0
ENDTAB
0
TABLE
2
UCS
5
7
100
AcDbSymbolTable
70
0
0
ENDTAB
0
TABLE
2
APPID
5
9
100
AcDbSymbolTable
70
2
0
APPID
5
12
100
AcDbSymbolTableRecord
100
AcDbRegAppTableRecord
2
ACAD
70
0
0
ENDTAB
0
TABLE
2
DIMSTYLE
5
A
100
AcDbSymbolTable
70
1
0
ENDTAB
0
TABLE
2
BLOCK_RECORD
5
1
100
AcDbSymbolTable
70
1
0
BLOCK_RECORD
5
1F
100
AcDbSymbolTableRecord
100
AcDbBlockTableRecord
2
*MODEL_SPACE
0
BLOCK_RECORD
5
1B
100
AcDbSymbolTableRecord
100
AcDbBlockTableRecord
2
*PAPER_SPACE
0
ENDTAB
0
ENDSEC
0
SECTION
2
BLOCKS
0
BLOCK
5
20
100
AcDbEntity
100
AcDbBlockBegin
2
*MODEL_SPACE
0
ENDBLK
5
21
100
AcDbEntity
100
AcDbBlockEnd
0
BLOCK
5
1C
100
AcDbEntity
100
AcDbBlockBegin
2
*PAPER_SPACE
0
ENDBLK
5
1D
100
AcDbEntity
100
AcDbBlockEnd
0
ENDSEC
0
SECTION
2
ENTITIES
0
CIRCLE
5
100
100
AcDbEntity
8
0
100
AcDbCircle
10
17.500328287685765
20
-4.979037292767269
30
0
40
0.85000000000000009
0
CIRCLE
5
101
100
AcDbEntity
8
0
100
AcDbCircle
10
27.660328287685765
20
-4.979037292767269
30
0
40
0.85000000000000009
0
CIRCLE
5
102
100
AcDbEntity
8
0
100
AcDbCircle
10
18.770328287685764
20
-2.4390372927672681
30
0
40
0.75000000000000011
0
LWPOLYLINE
5
103
100
AcDbEntity
8
0
100
AcDbPolyline
90
4
70
1
43
0.0
10
149.7403282876856
20
-12.049037292767274
10
14.150328287685586
20
-12.049037292767277
10
14.150328287685756
20
78.150962707232722
10
149.7403282876856
20
78.150962707232736
0
CIRCLE
5
104
100
AcDbEntity
8
0
100
AcDbCircle
10
22.580328287685766
20
-4.9790372927672681
30
0
40
2.1939058200639323
0
CIRCLE
5
105
100
AcDbEntity
8
0
100
AcDbCircle
10
25.120328287685766
20
0.10096270723273182
30
0
40
0.75000000000000011
0
CIRCLE
5
106
100
AcDbEntity
8
0
100
AcDbCircle
10
25.120328287685766
20
19.100962707232732
30
0
40
0.75000000000000011
0
CIRCLE
5
107
100
AcDbEntity
8
0
100
AcDbCircle
10
22.580328287685766
20
14.020962707232734
30
0
40
2.1939058200639323
0
CIRCLE
5
108
100
AcDbEntity
8
0
100
AcDbCircle
10
27.660328287685765
20
14.020962707232734
30
0
40
0.85000000000000009
0
CIRCLE
5
109
100
AcDbEntity
8
0
100
AcDbCircle
10
18.770328287685764
20
16.560962707232733
30
0
40
0.75000000000000011
0
CIRCLE
5
110
100
AcDbEntity
8
0
100
AcDbCircle
10
17.500328287685765
20
14.020962707232734
30
0
40
0.85000000000000009
0
CIRCLE
5
111
100
AcDbEntity
8
0
100
AcDbCircle
10
27.330328287685766
20
33.020962707232741
30
0
40
2.1939058200639323
0
CIRCLE
5
112
100
AcDbEntity
8
0
100
AcDbCircle
10
22.250328287685765
20
33.041924922727134
30
0
40
0.85000000000000009
0
CIRCLE
5
113
100
AcDbEntity
8
0
100
AcDbCircle
10
23.520328287685764
20
35.56096270723274
30
0
40
0.75000000000000011
0
CIRCLE
5
114
100
AcDbEntity
8
0
100
AcDbCircle
10
32.410328287685765
20
33.041924922727134
30
0
40
0.85000000000000009
0
CIRCLE
5
115
100
AcDbEntity
8
0
100
AcDbCircle
10
29.870328287685766
20
38.100962707232739
30
0
40
0.75000000000000011
0
CIRCLE
5
116
100
AcDbEntity
8
0
100
AcDbCircle
10
34.785328287685765
20
52.062886855099507
30
0
40
0.85000000000000009
0
CIRCLE
5
117
100
AcDbEntity
8
0
100
AcDbCircle
10
32.245328287685766
20
57.100962707232739
30
0
40
0.75000000000000011
0
CIRCLE
5
118
100
AcDbEntity
8
0
100
AcDbCircle
10
29.705328287685763
20
52.020962707232741
30
0
40
2.1939058200639323
0
CIRCLE
5
119
100
AcDbEntity
8
0
100
AcDbCircle
10
25.895328287685761
20
54.560962707232733
30
0
40
0.75000000000000011
0
CIRCLE
5
120
100
AcDbEntity
8
0
100
AcDbCircle
10
24.625328287685765
20
52.062886855099507
30
0
40
0.85000000000000009
0
CIRCLE
5
121
100
AcDbEntity
8
0
100
AcDbCircle
10
19.875328287685772
20
71.014957242270469
30
0
40
0.85000000000000009
0
CIRCLE
5
122
100
AcDbEntity
8
0
100
AcDbCircle
10
27.495328287685766
20
76.100962707232739
30
0
40
0.75000000000000011
0
CIRCLE
5
123
100
AcDbEntity
8
0
100
AcDbCircle
10
24.955328287685763
20
71.020962707232741
30
0
40
2.1939058200639323
0
CIRCLE
5
124
100
AcDbEntity
8
0
100
AcDbCircle
10
21.145328287685764
20
73.560962707232733
30
0
40
0.75000000000000011
0
CIRCLE
5
125
100
AcDbEntity
8
0
100
AcDbCircle
10
30.035328287685772
20
71.020740254275537
30
0
40
0.85000000000000009
0
CIRCLE
5
126
100
AcDbEntity
8
0
100
AcDbCircle
10
36.500328287685768
20
-4.979037292767269
30
0
40
0.85000000000000009
0
CIRCLE
5
127
100
AcDbEntity
8
0
100
AcDbCircle
10
44.120328287685751
20
0.10096270723273126
30
0
40
0.75000000000000011
0
CIRCLE
5
128
100
AcDbEntity
8
0
100
AcDbCircle
10
46.660328287685772
20
-4.979037292767269
30
0
40
0.85000000000000009
0
CIRCLE
5
129
100
AcDbEntity
8
0
100
AcDbCircle
10
37.770328287685764
20
-2.439037292767269
30
0
40
0.75000000000000011
0
CIRCLE
5
130
100
AcDbEntity
8
0
100
AcDbCircle
10
41.580328287685766
20
-4.979037292767269
30
0
40
2.1939058200639323
0
CIRCLE
5
131
100
AcDbEntity
8
0
100
AcDbCircle
10
55.500328287685782
20
-4.979037292767269
30
0
40
0.85000000000000009
0
CIRCLE
5
132
100
AcDbEntity
8
0
100
AcDbCircle
10
63.12032828768578
20
0.10096270723273126
30
0
40
0.75000000000000011
0
CIRCLE
5
133
100
AcDbEntity
8
0
100
AcDbCircle
10
65.660328287685786
20
-4.979037292767269
30
0
40
0.85000000000000009
0
CIRCLE
5
134
100
AcDbEntity
8
0
100
AcDbCircle
10
56.770328287685778
20
-2.439037292767269
30
0
40
0.75000000000000011
0
CIRCLE
5
135
100
AcDbEntity
8
0
100
AcDbCircle
10
60.580328287685774
20
-4.979037292767269
30
0
40
2.1939058200639323
0
CIRCLE
5
136
100
AcDbEntity
8
0
100
AcDbCircle
10
76.925328287685758
20
-4.979037292767269
30
0
40
0.85000000000000009
0
CIRCLE
5
137
100
AcDbEntity
8
0
100
AcDbCircle
10
84.545328287685749
20
0.10096270723273126
30
0
40
0.75000000000000011
0
CIRCLE
5
138
100
AcDbEntity
8
0
100
AcDbCircle
10
87.085328287685755
20
-4.979037292767269
30
0
40
0.85000000000000009
0
CIRCLE
5
139
100
AcDbEntity
8
0
100
AcDbCircle
10
78.195328287685768
20
-2.439037292767269
30
0
40
0.75000000000000011
0
CIRCLE
5
140
100
AcDbEntity
8
0
100
AcDbCircle
10
82.005328287685757
20
-4.979037292767269
30
0
40
2.1939058200639323
0
CIRCLE
5
141
100
AcDbEntity
8
0
100
AcDbCircle
10
103.12532828768579
20
-4.979037292767269
30
0
40
0.85000000000000009
0
CIRCLE
5
142
100
AcDbEntity
8
0
100
AcDbCircle
10
110.74532828768579
20
0.10096270723273126
30
0
40
0.75000000000000011
0
CIRCLE
5
143
100
AcDbEntity
8
0
100
AcDbCircle
10
113.2853282876858
20
-4.979037292767269
30
0
40
0.85000000000000009
0
CIRCLE
5
144
100
AcDbEntity
8
0
100
AcDbCircle
10
104.39532828768577
20
-2.439037292767269
30
0
40
0.75000000000000011
0
CIRCLE
5
145
100
AcDbEntity
8
0
100
AcDbCircle
10
108.20532828768577
20
-4.979037292767269
30
0
40
2.1939058200639323
0
CIRCLE
5
146
100
AcDbEntity
8
0
100
AcDbCircle
10
131.72532828768578
20
-4.979037292767269
30
0
40
0.85000000000000009
0
CIRCLE
5
147
100
AcDbEntity
8
0
100
AcDbCircle
10
132.99532828768577
20
-2.439037292767269
30
0
40
0.75000000000000011
0
CIRCLE
5
148
100
AcDbEntity
8
0
100
AcDbCircle
10
141.88532828768581
20
-4.979037292767269
30
0
40
0.85000000000000009
0
CIRCLE
5
149
100
AcDbEntity
8
0
100
AcDbCircle
10
139.34532828768579
20
0.10096270723273126
30
0
40
0.75000000000000011
0
CIRCLE
5
150
100
AcDbEntity
8
0
100
AcDbCircle
10
136.80532828768577
20
-4.979037292767269
30
0
40
2.1939058200639323
0
CIRCLE
5
151
100
AcDbEntity
8
0
100
AcDbCircle
10
46.660328287685758
20
14.020962707232734
30
0
40
0.85000000000000009
0
CIRCLE
5
152
100
AcDbEntity
8
0
100
AcDbCircle
10
37.770328287685764
20
16.560962707232733
30
0
40
0.75000000000000011
0
CIRCLE
5
153
100
AcDbEntity
8
0
100
AcDbCircle
10
36.500328287685768
20
14.020962707232734
30
0
40
0.85000000000000009
0
CIRCLE
5
154
100
AcDbEntity
8
0
100
AcDbCircle
10
41.580328287685766
20
14.020962707232734
30
0
40
2.1939058200639323
0
CIRCLE
5
155
100
AcDbEntity
8
0
100
AcDbCircle
10
44.120328287685766
20
19.100962707232732
30
0
40
0.75000000000000011
0
CIRCLE
5
156
100
AcDbEntity
8
0
100
AcDbCircle
10
65.660328287685758
20
14.020962707232734
30
0
40
0.85000000000000009
0
CIRCLE
5
157
100
AcDbEntity
8
0
100
AcDbCircle
10
56.770328287685771
20
16.560962707232733
30
0
40
0.75000000000000011
0
CIRCLE
5
158
100
AcDbEntity
8
0
100
AcDbCircle
10
55.500328287685761
20
14.020962707232734
30
0
40
0.85000000000000009
0
CIRCLE
5
159
100
AcDbEntity
8
0
100
AcDbCircle
10
60.580328287685774
20
14.020962707232734
30
0
40
2.1939058200639323
0
CIRCLE
5
160
100
AcDbEntity
8
0
100
AcDbCircle
10
63.120328287685766
20
19.100962707232732
30
0
40
0.75000000000000011
0
CIRCLE
5
161
100
AcDbEntity
8
0
100
AcDbCircle
10
84.660328287685758
20
14.020962707232734
30
0
40
0.85000000000000009
0
CIRCLE
5
162
100
AcDbEntity
8
0
100
AcDbCircle
10
75.770328287685771
20
16.560962707232733
30
0
40
0.75000000000000011
0
CIRCLE
5
163
100
AcDbEntity
8
0
100
AcDbCircle
10
74.500328287685775
20
14.020962707232734
30
0
40
0.85000000000000009
0
CIRCLE
5
164
100
AcDbEntity
8
0
100
AcDbCircle
10
79.580328287685774
20
14.020962707232734
30
0
40
2.1939058200639323
0
CIRCLE
5
165
100
AcDbEntity
8
0
100
AcDbCircle
10
82.12032828768578
20
19.100962707232732
30
0
40
0.75000000000000011
0
CIRCLE
5
166
100
AcDbEntity
8
0
100
AcDbCircle
10
103.66032828768579
20
14.020962707232734
30
0
40
0.85000000000000009
0
CIRCLE
5
167
100
AcDbEntity
8
0
100
AcDbCircle
10
94.770328287685786
20
16.560962707232733
30
0
40
0.75000000000000011
0
CIRCLE
5
168
100
AcDbEntity
8
0
100
AcDbCircle
10
93.50032828768579
20
14.020962707232734
30
0
40
0.85000000000000009
0
CIRCLE
5
169
100
AcDbEntity
8
0
100
AcDbCircle
10
98.580328287685788
20
14.020962707232734
30
0
40
2.1939058200639323
0
CIRCLE
5
170
100
AcDbEntity
8
0
100
AcDbCircle
10
101.12032828768579
20
19.100962707232732
30
0
40
0.75000000000000011
0
CIRCLE
5
171
100
AcDbEntity
8
0
100
AcDbCircle
10
122.6603282876858
20
14.020962707232734
30
0
40
0.85000000000000009
0
CIRCLE
5
172
100
AcDbEntity
8
0
100
AcDbCircle
10
113.7703282876858
20
16.560962707232733
30
0
40
0.75000000000000011
0
CIRCLE
5
173
100
AcDbEntity
8
0
100
AcDbCircle
10
112.50032828768582
20
14.020962707232734
30
0
40
0.85000000000000009
0
CIRCLE
5
174
100
AcDbEntity
8
0
100
AcDbCircle
10
117.5803282876858
20
14.020962707232734
30
0
40
2.1939058200639323
0
CIRCLE
5
175
100
AcDbEntity
8
0
100
AcDbCircle
10
120.12032828768579
20
19.100962707232732
30
0
40
0.75000000000000011
0
CIRCLE
5
176
100
AcDbEntity
8
0
100
AcDbCircle
10
133.9253282876858
20
14.020962707232734
30
0
40
0.85000000000000009
0
CIRCLE
5
177
100
AcDbEntity
8
0
100
AcDbCircle
10
141.54532828768581
20
19.100962707232732
30
0
40
0.75000000000000011
0
CIRCLE
5
178
100
AcDbEntity
8
0
100
AcDbCircle
10
144.0853282876858
20
14.020962707232734
30
0
40
0.85000000000000009
0
CIRCLE
5
179
100
AcDbEntity
8
0
100
AcDbCircle
10
135.19532828768578
20
16.560962707232733
30
0
40
0.75000000000000011
0
CIRCLE
5
180
100
AcDbEntity
8
0
100
AcDbCircle
10
139.00532828768578
20
14.020962707232734
30
0
40
2.1939058200639323
0
CIRCLE
5
181
100
AcDbEntity
8
0
100
AcDbCircle
10
47.320328287685768
20
35.56096270723274
30
0
40
0.75000000000000011
0
CIRCLE
5
182
100
AcDbEntity
8
0
100
AcDbCircle
10
53.670328287685763
20
38.100962707232739
30
0
40
0.75000000000000011
0
CIRCLE
5
183
100
AcDbEntity
8
0
100
AcDbCircle
10
46.050328287685758
20
33.041924922727134
30
0
40
0.85000000000000009
0
CIRCLE
5
184
100
AcDbEntity
8
0
100
AcDbCircle
10
56.210328287685762
20
33.041924922727134
30
0
40
0.85000000000000009
0
CIRCLE
5
185
100
AcDbEntity
8
0
100
AcDbCircle
10
51.130328287685771
20
33.020962707232741
30
0
40
2.1939058200639323
0
CIRCLE
5
186
100
AcDbEntity
8
0
100
AcDbCircle
10
66.320328287685768
20
35.56096270723274
30
0
40
0.75000000000000011
0
CIRCLE
5
187
100
AcDbEntity
8
0
100
AcDbCircle
10
72.670328287685763
20
38.100962707232739
30
0
40
0.75000000000000011
0
CIRCLE
5
188
100
AcDbEntity
8
0
100
AcDbCircle
10
65.050328287685772
20
33.041924922727134
30
0
40
0.85000000000000009
0
CIRCLE
5
189
100
AcDbEntity
8
0
100
AcDbCircle
10
75.210328287685769
20
33.041924922727134
30
0
40
0.85000000000000009
0
CIRCLE
5
190
100
AcDbEntity
8
0
100
AcDbCircle
10
70.130328287685771
20
33.020962707232741
30
0
40
2.1939058200639323
0
CIRCLE
5
191
100
AcDbEntity
8
0
100
AcDbCircle
10
85.320328287685783
20
35.56096270723274
30
0
40
0.75000000000000011
0
CIRCLE
5
192
100
AcDbEntity
8
0
100
AcDbCircle
10
91.670328287685805
20
38.100962707232739
30
0
40
0.75000000000000011
0
CIRCLE
5
193
100
AcDbEntity
8
0
100
AcDbCircle
10
84.050328287685801
20
33.041924922727134
30
0
40
0.85000000000000009
0
CIRCLE
5
194
100
AcDbEntity
8
0
100
AcDbCircle
10
94.210328287685769
20
33.041924922727134
30
0
40
0.85000000000000009
0
CIRCLE
5
195
100
AcDbEntity
8
0
100
AcDbCircle
10
89.130328287685785
20
33.020962707232741
30
0
40
2.1939058200639323
0
CIRCLE
5
196
100
AcDbEntity
8
0
100
AcDbCircle
10
104.32032828768581
20
35.56096270723274
30
0
40
0.75000000000000011
0
CIRCLE
5
197
100
AcDbEntity
8
0
100
AcDbCircle
10
110.67032828768582
20
38.100962707232739
30
0
40
0.75000000000000011
0
CIRCLE
5
198
100
AcDbEntity
8
0
100
AcDbCircle
10
103.05032828768582
20
33.041924922727134
30
0
40
0.85000000000000009
0
CIRCLE
5
199
100
AcDbEntity
8
0
100
AcDbCircle
10
113.21032828768583
20
33.041924922727134
30
0
40
0.85000000000000009
0
CIRCLE
5
200
100
AcDbEntity
8
0
100
AcDbCircle
10
108.13032828768581
20
33.020962707232741
30
0
40
2.1939058200639323
0
CIRCLE
5
201
100
AcDbEntity
8
0
100
AcDbCircle
10
130.42032828768581
20
35.56096270723274
30
0
40
0.75000000000000011
0
CIRCLE
5
202
100
AcDbEntity
8
0
100
AcDbCircle
10
136.7703282876858
20
38.100962707232739
30
0
40
0.75000000000000011
0
CIRCLE
5
203
100
AcDbEntity
8
0
100
AcDbCircle
10
129.1503282876858
20
33.041924922727134
30
0
40
0.85000000000000009
0
CIRCLE
5
204
100
AcDbEntity
8
0
100
AcDbCircle
10
139.31032828768579
20
33.041924922727134
30
0
40
0.85000000000000009
0
CIRCLE
5
205
100
AcDbEntity
8
0
100
AcDbCircle
10
134.23032828768581
20
33.020962707232741
30
0
40
2.1939058200639323
0
CIRCLE
5
206
100
AcDbEntity
8
0
100
AcDbCircle
10
60.885328287685766
20
52.062886855099507
30
0
40
0.85000000000000009
0
CIRCLE
5
207
100
AcDbEntity
8
0
100
AcDbCircle
10
50.725328287685763
20
52.062886855099507
30
0
40
0.85000000000000009
0
CIRCLE
5
208
100
AcDbEntity
8
0
100
AcDbCircle
10
58.345328287685767
20
57.100962707232739
30
0
40
0.75000000000000011
0
CIRCLE
5
209
100
AcDbEntity
8
0
100
AcDbCircle
10
55.805328287685768
20
52.020962707232741
30
0
40
2.1939058200639323
0
CIRCLE
5
210
100
AcDbEntity
8
0
100
AcDbCircle
10
51.995328287685766
20
54.560962707232733
30
0
40
0.75000000000000011
0
CIRCLE
5
211
100
AcDbEntity
8
0
100
AcDbCircle
10
79.885328287685752
20
52.062886855099507
30
0
40
0.85000000000000009
0
CIRCLE
5
212
100
AcDbEntity
8
0
100
AcDbCircle
10
69.72532828768577
20
52.062886855099507
30
0
40
0.85000000000000009
0
CIRCLE
5
213
100
AcDbEntity
8
0
100
AcDbCircle
10
77.345328287685774
20
57.100962707232739
30
0
40
0.75000000000000011
0
CIRCLE
5
214
100
AcDbEntity
8
0
100
AcDbCircle
10
74.805328287685768
20
52.020962707232741
30
0
40
2.1939058200639323
0
CIRCLE
5
215
100
AcDbEntity
8
0
100
AcDbCircle
10
70.995328287685751
20
54.560962707232733
30
0
40
0.75000000000000011
0
CIRCLE
5
216
100
AcDbEntity
8
0
100
AcDbCircle
10
98.88532828768578
20
52.062886855099507
30
0
40
0.85000000000000009
0
CIRCLE
5
217
100
AcDbEntity
8
0
100
AcDbCircle
10
88.725328287685812
20
52.062886855099507
30
0
40
0.85000000000000009
0
CIRCLE
5
218
100
AcDbEntity
8
0
100
AcDbCircle
10
96.345328287685774
20
57.100962707232739
30
0
40
0.75000000000000011
0
CIRCLE
5
219
100
AcDbEntity
8
0
100
AcDbCircle
10
93.805328287685796
20
52.020962707232741
30
0
40
2.1939058200639323
0
CIRCLE
5
220
100
AcDbEntity
8
0
100
AcDbCircle
10
89.995328287685794
20
54.560962707232733
30
0
40
0.75000000000000011
0
CIRCLE
5
221
100
AcDbEntity
8
0
100
AcDbCircle
10
117.88532828768581
20
52.062886855099507
30
0
40
0.85000000000000009
0
CIRCLE
5
222
100
AcDbEntity
8
0
100
AcDbCircle
10
107.72532828768578
20
52.062886855099507
30
0
40
0.85000000000000009
0
CIRCLE
5
223
100
AcDbEntity
8
0
100
AcDbCircle
10
115.34532828768579
20
57.100962707232739
30
0
40
0.75000000000000011
0
CIRCLE
5
224
100
AcDbEntity
8
0
100
AcDbCircle
10
112.80532828768578
20
52.020962707232741
30
0
40
2.1939058200639323
0
CIRCLE
5
225
100
AcDbEntity
8
0
100
AcDbCircle
10
108.99532828768578
20
54.560962707232733
30
0
40
0.75000000000000011
0
CIRCLE
5
226
100
AcDbEntity
8
0
100
AcDbCircle
10
132.79532828768581
20
54.560962707232733
30
0
40
0.75000000000000011
0
CIRCLE
5
227
100
AcDbEntity
8
0
100
AcDbCircle
10
131.5253282876858
20
52.062886855099507
30
0
40
0.85000000000000009
0
CIRCLE
5
228
100
AcDbEntity
8
0
100
AcDbCircle
10
136.60532828768581
20
52.020962707232741
30
0
40
2.1939058200639323
0
CIRCLE
5
229
100
AcDbEntity
8
0
100
AcDbCircle
10
139.1453282876858
20
57.100962707232739
30
0
40
0.75000000000000011
0
CIRCLE
5
230
100
AcDbEntity
8
0
100
AcDbCircle
10
141.68532828768579
20
52.062886855099507
30
0
40
0.85000000000000009
0
CIRCLE
5
231
100
AcDbEntity
8
0
100
AcDbCircle
10
48.895328287685764
20
76.100962707232739
30
0
40
0.75000000000000011
0
CIRCLE
5
232
100
AcDbEntity
8
0
100
AcDbCircle
10
51.435328287685763
20
71.019625495534413
30
0
40
0.85000000000000009
0
CIRCLE
5
233
100
AcDbEntity
8
0
100
AcDbCircle
10
42.545328287685763
20
73.560962707232733
30
0
40
0.75000000000000011
0
CIRCLE
5
234
100
AcDbEntity
8
0
100
AcDbCircle
10
46.355328287685765
20
71.020962707232741
30
0
40
2.1939058200639323
0
CIRCLE
5
235
100
AcDbEntity
8
0
100
AcDbCircle
10
41.275328287685781
20
71.011868354414688
30
0
40
0.85000000000000009
0
CIRCLE
5
236
100
AcDbEntity
8
0
100
AcDbCircle
10
67.895328287685771
20
76.100962707232739
30
0
40
0.75000000000000011
0
CIRCLE
5
237
100
AcDbEntity
8
0
100
AcDbCircle
10
70.435328287688947
20
71.012085887225112
30
0
40
0.85000000000000009
0
CIRCLE
5
238
100
AcDbEntity
8
0
100
AcDbCircle
10
61.54532828768577
20
73.560962707232733
30
0
40
0.75000000000000011
0
CIRCLE
5
239
100
AcDbEntity
8
0
100
AcDbCircle
10
65.355328287685779
20
71.020962707232741
30
0
40
2.1939058200639323
0
CIRCLE
5
240
100
AcDbEntity
8
0
100
AcDbCircle
10
60.275328287685767
20
71.001682506177644
30
0
40
0.85000000000000009
0
CIRCLE
5
241
100
AcDbEntity
8
0
100
AcDbCircle
10
86.895328287685771
20
76.100962707232739
30
0
40
0.75000000000000011
0
CIRCLE
5
242
100
AcDbEntity
8
0
100
AcDbCircle
10
89.43532828768582
20
71.029407446703715
30
0
40
0.85000000000000009
0
CIRCLE
5
243
100
AcDbEntity
8
0
100
AcDbCircle
10
80.545328287685791
20
73.560962707232733
30
0
40
0.75000000000000011
0
CIRCLE
5
244
100
AcDbEntity
8
0
100
AcDbCircle
10
84.355328287685751
20
71.020962707232741
30
0
40
2.1939058200639323
0
CIRCLE
5
245
100
AcDbEntity
8
0
100
AcDbCircle
10
79.275328287685795
20
70.999998413026333
30
0
40
0.85000000000000009
0
CIRCLE
5
246
100
AcDbEntity
8
0
100
AcDbCircle
10
105.8953282876858
20
76.100962707232739
30
0
40
0.75000000000000011
0
CIRCLE
5
247
100
AcDbEntity
8
0
100
AcDbCircle
10
108.43532828768581
20
71.011627015331371
30
0
40
0.85000000000000009
0
CIRCLE
5
248
100
AcDbEntity
8
0
100
AcDbCircle
10
99.545328287685777
20
73.560962707232733
30
0
40
0.75000000000000011
0
CIRCLE
5
249
100
AcDbEntity
8
0
100
AcDbCircle
10
103.35532828768578
20
71.020962707232741
30
0
40
2.1939058200639323
0
CIRCLE
5
250
100
AcDbEntity
8
0
100
AcDbCircle
10
98.275328287685824
20
71.000166378007336
30
0
40
0.85000000000000009
0
CIRCLE
5
251
100
AcDbEntity
8
0
100
AcDbCircle
10
124.89532828768577
20
76.100962707232739
30
0
40
0.75000000000000011
0
CIRCLE
5
252
100
AcDbEntity
8
0
100
AcDbCircle
10
127.43532828768579
20
71.017960792822919
30
0
40
0.85000000000000009
0
CIRCLE
5
253
100
AcDbEntity
8
0
100
AcDbCircle
10
118.54532828768581
20
73.560962707232733
30
0
40
0.75000000000000011
0
CIRCLE
5
254
100
AcDbEntity
8
0
100
AcDbCircle
10
122.35532828768577
20
71.020962707232741
30
0
40
2.1939058200639323
0
CIRCLE
5
255
100
AcDbEntity
8
0
100
AcDbCircle
10
117.27532828768581
20
71.006310419991934
30
0
40
0.85000000000000009
0
CIRCLE
5
256
100
AcDbEntity
8
0
100
AcDbCircle
10
143.8953282876858
20
76.100962707232739
30
0
40
0.75000000000000011
0
CIRCLE
5
257
100
AcDbEntity
8
0
100
AcDbCircle
10
141.35532828768578
20
71.020962707232741
30
0
40
2.1939058200639323
0
CIRCLE
5
258
100
AcDbEntity
8
0
100
AcDbCircle
10
146.43532828768568
20
71.013898465423708
30
0
40
0.85000000000000009
0
CIRCLE
5
259
100
AcDbEntity
8
0
100
AcDbCircle
10
137.54532828768578
20
73.560962707232733
30
0
40
0.75000000000000011
0
CIRCLE
5
260
100
AcDbEntity
8
0
100
AcDbCircle
10
136.27532828768591
20
71.001090709733433
30
0
40
0.85000000000000009
0
CIRCLE
5
261
100
AcDbEntity
8
0
100
AcDbCircle
10
15.810328287685763
20
27.910962707232734
30
0
40
0.63500000000000001
0
CIRCLE
5
262
100
AcDbEntity
8
0
100
AcDbCircle
10
38.670328287685763
20
27.910962707232734
30
0
40
0.63500000000000001
0
CIRCLE
5
263
100
AcDbEntity
8
0
100
AcDbCircle
10
144.2403282876856
20
22.050962707232735
30
0
40
0.33019999999999999
0
CIRCLE
5
264
100
AcDbEntity
8
0
100
AcDbCircle
10
144.2403282876856
20
24.590962707232734
30
0
40
0.33019999999999999
0
CIRCLE
5
265
100
AcDbEntity
8
0
100
AcDbCircle
10
144.2403282876856
20
27.130962707232733
30
0
40
0.33019999999999999
0
CIRCLE
5
266
100
AcDbEntity
8
0
100
AcDbCircle
10
144.2403282876856
20
29.670962707232732
30
0
40
0.33019999999999999
0
CIRCLE
5
267
100
AcDbEntity
8
0
100
AcDbCircle
10
32.230328287685765
20
-8.1090372927672689
30
0
40
1.6500000000000001
0
CIRCLE
5
268
100
AcDbEntity
8
0
100
AcDbCircle
10
124.45032828768576
20
-8.1090372927672654
30
0
40
1.6500000000000001
0
CIRCLE
5
269
100
AcDbEntity
8
0
100
AcDbCircle
10
74.880328287685771
20
74.550962707232728
30
0
40
1.6500000000000001
0
CIRCLE
5
270
100
AcDbEntity
8
0
100
AcDbCircle
10
131.75032828768576
20
74.550962707232728
30
0
40
1.6500000000000001
0
CIRCLE
5
271
100
AcDbEntity
8
0
100
AcDbCircle
10
15.810328287685763
20
30.450962707232737
30
0
40
0.63500000000000001
0
CIRCLE
5
272
100
AcDbEntity
8
0
100
AcDbCircle
10
15.810328287685763
20
32.99096270723274
30
0
40
0.63500000000000001
0
CIRCLE
5
273
100
AcDbEntity
8
0
100
AcDbCircle
10
15.810328287685763
20
35.530962707232739
30
0
40
0.63500000000000001
0
CIRCLE
5
274
100
AcDbEntity
8
0
100
AcDbCircle
10
15.810328287685763
20
38.070962707232738
30
0
40
0.63500000000000001
0
CIRCLE
5
275
100
AcDbEntity
8
0
100
AcDbCircle
10
15.810328287685763
20
40.610962707232744
30
0
40
0.63500000000000001
0
CIRCLE
5
276
100
AcDbEntity
8
0
100
AcDbCircle
10
15.810328287685763
20
43.150962707232736
30
0
40
0.63500000000000001
0
CIRCLE
5
277
100
AcDbEntity
8
0
100
AcDbCircle
10
15.810328287685763
20
45.690962707232728
30
0
40
0.63500000000000001
0
CIRCLE
5
278
100
AcDbEntity
8
0
100
AcDbCircle
10
15.810328287685763
20
48.230962707232734
30
0
40
0.63500000000000001
0
CIRCLE
5
279
100
AcDbEntity
8
0
100
AcDbCircle
10
15.810328287685763
20
50.770962707232741
30
0
40
0.63500000000000001
0
CIRCLE
5
280
100
AcDbEntity
8
0
100
AcDbCircle
10
15.810328287685763
20
53.310962707232733
30
0
40
0.63500000000000001
0
CIRCLE
5
281
100
AcDbEntity
8
0
100
AcDbCircle
10
15.810328287685763
20
55.850962707232732
30
0
40
0.63500000000000001
0
CIRCLE
5
282
100
AcDbEntity
8
0
100
AcDbCircle
10
15.810328287685763
20
58.390962707232738
30
0
40
0.63500000000000001
0
CIRCLE
5
283
100
AcDbEntity
8
0
100
AcDbCircle
10
15.810328287685763
20
60.930962707232737
30
0
40
0.63500000000000001
0
CIRCLE
5
284
100
AcDbEntity
8
0
100
AcDbCircle
10
15.810328287685763
20
63.470962707232736
30
0
40
0.63500000000000001
0
CIRCLE
5
285
100
AcDbEntity
8
0
100
AcDbCircle
10
15.810328287685763
20
66.010962707232736
30
0
40
0.63500000000000001
0
CIRCLE
5
286
100
AcDbEntity
8
0
100
AcDbCircle
10
15.810328287685763
20
68.550962707232742
30
0
40
0.63500000000000001
0
CIRCLE
5
287
100
AcDbEntity
8
0
100
AcDbCircle
10
15.810328287685763
20
71.090962707232734
30
0
40
0.63500000000000001
0
CIRCLE
5
288
100
AcDbEntity
8
0
100
AcDbCircle
10
15.810328287685763
20
73.63096270723274
30
0
40
0.63500000000000001
0
CIRCLE
5
289
100
AcDbEntity
8
0
100
AcDbCircle
10
15.810328287685763
20
76.170962707232746
30
0
40
0.63500000000000001
0
CIRCLE
5
290
100
AcDbEntity
8
0
100
AcDbCircle
10
38.670328287685763
20
30.450962707232737
30
0
40
0.63500000000000001
0
CIRCLE
5
291
100
AcDbEntity
8
0
100
AcDbCircle
10
38.670328287685763
20
32.99096270723274
30
0
40
0.63500000000000001
0
CIRCLE
5
292
100
AcDbEntity
8
0
100
AcDbCircle
10
38.670328287685763
20
35.530962707232739
30
0
40
0.63500000000000001
0
CIRCLE
5
293
100
AcDbEntity
8
0
100
AcDbCircle
10
38.670328287685763
20
38.070962707232738
30
0
40
0.63500000000000001
0
CIRCLE
5
294
100
AcDbEntity
8
0
100
AcDbCircle
10
38.670328287685763
20
40.610962707232744
30
0
40
0.63500000000000001
0
CIRCLE
5
295
100
AcDbEntity
8
0
100
AcDbCircle
10
38.670328287685763
20
43.150962707232736
30
0
40
0.63500000000000001
0
CIRCLE
5
296
100
AcDbEntity
8
0
100
AcDbCircle
10
38.670328287685763
20
45.690962707232728
30
0
40
0.63500000000000001
0
CIRCLE
5
297
100
AcDbEntity
8
0
100
AcDbCircle
10
38.670328287685763
20
48.230962707232734
30
0
40
0.63500000000000001
0
CIRCLE
5
298
100
AcDbEntity
8
0
100
AcDbCircle
10
38.670328287685763
20
50.770962707232741
30
0
40
0.63500000000000001
0
CIRCLE
5
299
100
AcDbEntity
8
0
100
AcDbCircle
10
38.670328287685763
20
53.310962707232733
30
0
40
0.63500000000000001
0
CIRCLE
5
300
100
AcDbEntity
8
0
100
AcDbCircle
10
38.670328287685763
20
55.850962707232732
30
0
40
0.63500000000000001
0
CIRCLE
5
301
100
AcDbEntity
8
0
100
AcDbCircle
10
38.670328287685763
20
58.390962707232738
30
0
40
0.63500000000000001
0
CIRCLE
5
302
100
AcDbEntity
8
0
100
AcDbCircle
10
38.670328287685763
20
60.930962707232737
30
0
40
0.63500000000000001
0
CIRCLE
5
303
100
AcDbEntity
8
0
100
AcDbCircle
10
38.670328287685763
20
63.470962707232736
30
0
40
0.63500000000000001
0
CIRCLE
5
304
100
AcDbEntity
8
0
100
AcDbCircle
10
147.7403282876856
20
22.050962707232735
30
0
40
0.34999999999999998
0
CIRCLE
5
305
100
AcDbEntity
8
0
100
AcDbCircle
10
147.7403282876856
20
24.590962707232734
30
0
40
0.34999999999999998
0
CIRCLE
5
306
100
AcDbEntity
8
0
100
AcDbCircle
10
147.7403282876856
20
27.130962707232733
30
0
40
0.34999999999999998
0
CIRCLE
5
307
100
AcDbEntity
8
0
100
AcDbCircle
10
147.7403282876856
20
29.670962707232732
30
0
40
0.34999999999999998
0
CIRCLE
5
308
100
AcDbEntity
8
0
100
AcDbCircle
10
144.2403282876856
20
32.210962707232731
30
0
40
0.33019999999999999
0
CIRCLE
5
309
100
AcDbEntity
8
0
100
AcDbCircle
10
147.7403282876856
20
32.210962707232731
30
0
40
0.34999999999999998
0
ENDSEC
0
SECTION
2
OBJECTS
0
DICTIONARY
5
C
100
AcDbDictionary
3
ACAD_GROUP
350
D
3
ACAD_MLINESTYLE
350
17
0
DICTIONARY
5
D
100
AcDbDictionary
0
DICTIONARY
5
1A
330
C
100
AcDbDictionary
0
DICTIONARY
5
17
100
AcDbDictionary
0
ENDSEC
0
EOF
